<svg width="118" height="118" viewBox="0 0 118 118" fill="none" xmlns="http://www.w3.org/2000/svg">
<g clip-path="url(#clip0_2004_15)">
<path fill-rule="evenodd" clip-rule="evenodd" d="M4.58497 0H113.415C115.931 0 118 2.06821 118 4.58361V113.416C118 115.932 115.931 118 113.415 118H4.58497C2.06898 118 0.000280036 115.932 0.000280036 113.416V4.61156C-0.0276754 2.06821 2.04102 0 4.58497 0Z" fill="url(#paint0_radial_2004_15)" stroke="#231F20" stroke-width="0.15271" stroke-miterlimit="2.6131"/>
<path fill-rule="evenodd" clip-rule="evenodd" d="M7.35241 3.01837H110.676C113.08 3.01837 115.037 4.97479 115.037 7.37839V110.677C115.037 113.081 113.08 115.037 110.676 115.037H7.35241C4.94824 115.037 2.99136 113.081 2.99136 110.677V7.37839C2.99136 4.97479 4.94824 3.01837 7.35241 3.01837Z" stroke="#EDC35C" stroke-width="0.458129" stroke-miterlimit="2.6131"/>
<path fill-rule="evenodd" clip-rule="evenodd" d="M45.3438 19.9555H47.0211V71.0739H45.3438V19.9555Z" fill="url(#paint1_linear_2004_15)"/>
<path fill-rule="evenodd" clip-rule="evenodd" d="M42.4649 19.9833L44.1422 19.9554V71.0738H42.4649V19.9833Z" fill="url(#paint2_linear_2004_15)"/>
<path fill-rule="evenodd" clip-rule="evenodd" d="M39.5853 20.0115L41.2627 19.9836V70.9902C40.7035 70.9063 40.1444 70.7107 39.5853 70.4871V20.0115Z" fill="url(#paint3_linear_2004_15)"/>
<path fill-rule="evenodd" clip-rule="evenodd" d="M36.6777 20.0392L38.355 20.0112V69.7881C37.7679 69.3689 37.1809 68.8658 36.6777 68.2789V20.0392Z" fill="url(#paint4_linear_2004_15)"/>
<path fill-rule="evenodd" clip-rule="evenodd" d="M33.9099 20.0672L35.4754 20.0393V66.5741C34.4969 64.8692 33.9099 62.801 33.9099 60.5371V20.0672Z" fill="url(#paint5_linear_2004_15)"/>
<path fill-rule="evenodd" clip-rule="evenodd" d="M48.3352 19.9555H50.0125V71.0739H48.3352V19.9555Z" fill="url(#paint6_linear_2004_15)"/>
<path fill-rule="evenodd" clip-rule="evenodd" d="M51.7174 22.7503H71.5937C73.4667 22.7503 75.1999 23.2534 76.7095 24.1478C76.4299 24.4832 76.2063 24.8745 76.0106 25.2937C74.6967 24.5391 73.1871 24.0919 71.5937 24.0919H51.7174V22.7503ZM81.6296 31.6381C81.6855 32.0294 81.7135 32.4486 81.7135 32.8678V51.6215C81.4899 51.5656 81.2662 51.5376 81.0426 51.5376C80.8189 51.5376 80.5953 51.5656 80.3716 51.6215V32.8678C80.3716 32.5324 80.3437 32.1691 80.3157 31.8337C80.791 31.8337 81.2103 31.7499 81.6296 31.6381ZM81.7135 57.351V67.9716V68.6423H81.0426H51.6055V67.3008H80.3716V57.3231C80.5953 57.379 80.8189 57.4069 81.0426 57.4069C81.2662 57.4348 81.4899 57.4069 81.7135 57.351Z" fill="url(#paint7_linear_2004_15)"/>
<path fill-rule="evenodd" clip-rule="evenodd" d="M51.5779 20.0673H71.9853C74.3336 20.0673 77.213 21.1294 79.3096 22.5547C78.7226 22.6945 78.1635 22.9181 77.6882 23.2535C75.927 22.2473 73.7465 21.5206 71.9853 21.5206H51.5779V20.0673ZM84.09 29.9612C84.1739 30.5202 84.2298 31.1071 84.2298 31.6661V70.3473V71.0739H83.503H51.5779V69.6206H82.7761V56.848C83.5309 56.3169 84.0061 55.4505 84.0061 54.4444C84.0061 53.4662 83.5309 52.5997 82.7761 52.0408V31.6102C82.7761 31.4425 82.7761 31.2748 82.7761 31.1071C83.2793 30.8276 83.7266 30.4363 84.09 29.9612Z" fill="url(#paint8_linear_2004_15)"/>
<path fill-rule="evenodd" clip-rule="evenodd" d="M81.043 52.1524C82.329 52.1524 83.3633 53.1865 83.3633 54.4721C83.3633 55.7578 82.329 56.7919 81.043 56.7919C79.7571 56.7919 78.7227 55.7578 78.7227 54.4721C78.7227 53.1865 79.7571 52.1524 81.043 52.1524Z" fill="url(#paint9_radial_2004_15)"/>
<path d="M80.3164 30.8836C82.3853 30.8836 84.0624 29.2069 84.0624 27.1385C84.0624 25.0701 82.3853 23.3933 80.3164 23.3933C78.2476 23.3933 76.5704 25.0701 76.5704 27.1385C76.5704 29.2069 78.2476 30.8836 80.3164 30.8836Z" fill="url(#paint10_radial_2004_15)"/>
<path fill-rule="evenodd" clip-rule="evenodd" d="M32.9599 91.6442H36.4544V91.1132H34.6652V81.1634C34.1341 81.8901 33.3513 82.505 32.5406 82.8124L31.5063 83.2316V88.4581L32.9599 91.6442Z" fill="white"/>
<path fill-rule="evenodd" clip-rule="evenodd" d="M41.7937 90.4705H48.503C51.5781 90.4705 53.1436 88.7656 53.1436 87.0607C53.1436 85.1602 51.5502 84.154 49.9008 83.7907C51.5222 83.3435 52.3329 82.3373 52.3329 81.1355C52.3329 78.704 49.3976 78.2568 47.6923 78.2568H41.7937V78.676H43.1635V90.0792H41.7937V90.4705ZM45.6236 83.6509V78.676H47.2171C48.6708 78.676 49.8169 79.5145 49.8169 81.1635C49.8169 82.7007 48.9503 83.6509 47.2171 83.6509H45.6236ZM45.6236 90.0512V84.0422H48.0278C49.7051 84.0422 50.6276 85.4956 50.6276 87.0048C50.6276 88.514 49.761 90.0512 48.0278 90.0512H45.6236ZM62.956 87.3402L63.1796 87.452C62.4248 89.5481 60.412 90.694 58.6788 90.694C52.4727 90.694 52.1093 80.1294 58.8186 80.1294C61.055 80.1294 63.1237 81.0517 63.1517 83.064H56.2746C55.7994 85.5235 57.1412 88.8774 60.3561 88.8774C61.3625 88.8494 62.3689 88.3463 62.956 87.3402ZM56.3585 82.6448H60.8314C60.7195 81.415 60.2723 80.5207 58.8465 80.5207C57.5326 80.5207 56.694 81.415 56.3585 82.6448ZM63.571 88.0669C63.571 89.604 64.7172 90.694 66.2547 90.694C68.0159 90.694 69.1062 89.1289 70.0846 88.4302C70.1126 90.0512 70.476 90.5264 71.9297 90.5264C72.3769 90.5264 73.3833 90.4984 73.8306 90.4705V90.0512H73.4392C72.5167 90.0512 72.5167 89.3525 72.5167 88.4861V87.5638C72.5167 87.1445 72.2092 87.0328 71.8737 87.0328C70.5039 87.0328 70.0566 88.7935 67.6525 88.8215C66.5902 88.8215 66.0031 88.1507 66.0031 87.1445C66.0031 85.8309 67.1493 85.6074 68.4911 85.4676C70.2523 85.244 72.6006 85.3558 72.5726 82.8404C72.5447 80.884 71.1469 80.1014 69.3018 80.1014C67.4847 80.1014 64.7731 81.415 64.7731 83.0081C64.7731 83.7907 65.3881 84.154 65.9752 84.154C66.5343 84.154 67.0654 83.8186 67.0654 83.064C67.0654 82.5889 66.7299 82.2535 66.7299 81.8343C66.7299 80.9958 67.5407 80.6884 68.2675 80.6884C69.1062 80.6884 70.0846 81.3032 70.0846 82.8684C70.0846 86.5856 63.571 84.0981 63.571 88.0669ZM77.353 79.9617V87.6476C77.353 89.0451 77.996 89.8276 79.2819 89.8276C80.1485 89.8276 81.099 89.3525 81.9097 88.6538C81.9097 88.4581 81.8818 88.2066 81.8818 87.9551L81.9097 80.7163H80.5399V80.2971C81.2388 80.2971 83 80.2971 84.1462 79.9617H84.3419V88.4861C84.3419 89.3525 84.3418 90.0512 85.2644 90.0512H85.6837V90.4705C85.2364 90.4984 84.23 90.5264 83.7827 90.5264C82.5527 90.5264 82.1334 90.191 81.9936 89.1289C81.099 89.8276 79.5335 90.6661 78.1637 90.6661C75.6477 90.6661 74.9488 89.2407 74.9488 87.0607L74.9768 80.7163H73.607V80.2971C74.3059 80.2971 76.0671 80.2971 77.2132 79.9617H77.353ZM85.5998 80.7163H86.8299V87.0886C86.8299 89.2966 87.5288 90.694 90.0448 90.694C91.4705 90.694 92.3651 89.9674 92.8962 89.073L92.6446 88.8215C91.9457 89.6879 91.4146 89.9674 90.6598 89.9674C89.5136 89.9674 89.29 89.0451 89.29 87.6476V80.7163H91.9737V80.2971H89.29V77.083H88.8706C88.6749 79.0673 87.7524 80.2971 85.8794 80.2971H85.5998V80.7163ZM97.2293 90.4705L92.8123 80.7163H91.8619V80.2971H96.4465V80.7163H95.4961L98.7668 87.983L101.283 80.7163H99.913V80.2971H103.072V80.7163H101.702L97.9282 91.5605C97.5927 92.4828 96.6143 94.523 95.4401 94.523C93.679 94.523 93.5112 92.1753 95.3283 92.1753C95.9713 92.1753 96.2229 92.3989 96.6981 92.3989C97.0895 92.3989 97.397 92.0076 97.5648 91.5325L97.9002 90.4705H97.2293Z" fill="white"/>
<path fill-rule="evenodd" clip-rule="evenodd" d="M27.564 93.2654V93.7965H36.6215V93.2654H32.7357L25.1598 76.4123C25.02 76.6079 24.8523 76.8315 24.6566 76.9992C24.0695 77.6141 23.3147 78.0333 22.532 78.2849L24.7125 83.2039H19.4289L21.4417 78.4526C21.246 78.4526 21.0503 78.4526 20.8547 78.4526L18.8419 83.2039H18.8139V83.2598L16.5495 88.6259H14.9002V89.157H19.0096V88.6259H17.1366L19.2053 83.7349H24.9361L29.2413 93.2654H27.564Z" fill="white"/>
<path fill-rule="evenodd" clip-rule="evenodd" d="M32.8476 79.0674C32.4283 76.8874 30.8908 77.8377 31.338 79.5984C31.5337 80.3251 32.3444 81.3313 32.2326 82.03C33.239 81.6387 34.1615 80.6885 34.497 79.6543C34.9722 78.229 33.7981 77.6979 33.1551 78.5084C32.9595 78.7879 32.8476 79.0674 32.8476 79.0674Z" fill="white"/>
<path fill-rule="evenodd" clip-rule="evenodd" d="M22.2248 71.9681C23.9021 73.4214 24.0978 74.8468 22.8678 76.2443C24.1537 75.4337 24.9644 74.0363 24.9924 72.5271C25.4117 73.8966 25.0483 75.4058 24.0419 76.4399C23.0355 77.474 21.5539 77.8653 20.1561 77.502C21.0227 77.4461 21.8614 77.0268 22.3646 76.3002C22.8957 75.6014 23.0914 74.6791 22.8957 73.8407C22.9796 74.6791 22.7559 75.4617 22.2248 76.2163C21.2184 75.0425 21.0507 74.0643 21.7216 73.3096C22.2248 72.7507 22.3925 72.3314 22.2248 71.9681Z" fill="url(#paint11_linear_2004_15)"/>
<path fill-rule="evenodd" clip-rule="evenodd" d="M47.4122 98.1004L48.1391 98.0445C48.167 98.3519 48.2509 98.5755 48.3907 98.7711C48.5304 98.9668 48.7261 99.1065 48.9777 99.2463C49.2573 99.3581 49.5648 99.414 49.9003 99.414C50.2078 99.414 50.4594 99.3581 50.683 99.2742C50.9067 99.1904 51.0744 99.0506 51.1862 98.9109C51.298 98.7432 51.3539 98.5755 51.3539 98.4078C51.3539 98.2121 51.298 98.0724 51.1862 97.9327C51.0744 97.7929 50.9067 97.6811 50.6551 97.5693C50.4873 97.5134 50.1519 97.4016 49.5928 97.2898C49.0336 97.1501 48.6702 97.0383 48.4466 96.9265C48.167 96.7868 47.9434 96.5911 47.8036 96.3675C47.6638 96.1439 47.6079 95.8924 47.6079 95.6409C47.6079 95.3334 47.6918 95.0539 47.8595 94.8024C48.0273 94.5509 48.2788 94.3552 48.6143 94.2155C48.9498 94.0757 49.3132 94.0198 49.7046 94.0198C50.1519 94.0198 50.5432 94.1037 50.8787 94.2434C51.2142 94.3832 51.4658 94.6068 51.6615 94.8583C51.8292 95.1378 51.941 95.4452 51.941 95.7806L51.1862 95.8365C51.1583 95.4732 51.0185 95.1657 50.7669 94.998C50.5432 94.8024 50.1798 94.7185 49.7325 94.7185C49.2573 94.7185 48.9218 94.8024 48.6982 94.9701C48.4745 95.1378 48.3627 95.3614 48.3627 95.6129C48.3627 95.8365 48.4466 96.0042 48.5864 96.1439C48.7261 96.2837 49.1455 96.4234 49.7605 96.5632C50.4035 96.7029 50.8507 96.8427 51.0744 96.9545C51.4099 97.1221 51.6615 97.3178 51.8292 97.5693C51.9969 97.8209 52.0808 98.1004 52.0808 98.4078C52.0808 98.7152 51.9969 99.0227 51.8012 99.3022C51.6335 99.5816 51.3539 99.8052 51.0185 99.945C50.683 100.113 50.2916 100.169 49.8723 100.169C49.3412 100.169 48.8939 100.085 48.5304 99.945C48.167 99.7773 47.8875 99.5537 47.6638 99.2463C47.5241 98.855 47.4122 98.4916 47.4122 98.1004ZM53.1151 100.029V94.1037H53.842V97.4855L55.5752 95.7247H56.5257L54.8763 97.3178L56.6934 100.029H55.7989L54.3731 97.8209L53.8699 98.3239V100.029H53.1151ZM57.2525 94.9142V94.0757H57.9794V94.9142H57.2525ZM57.2525 100.029V95.7247H57.9794V100.029H57.2525ZM59.0976 100.029V95.7247H59.7406V96.3396C60.0481 95.8644 60.5233 95.6409 61.1104 95.6409C61.362 95.6409 61.6136 95.6968 61.8372 95.7806C62.0609 95.8644 62.2286 96.0042 62.3125 96.1439C62.4243 96.2837 62.5081 96.4793 62.5361 96.675C62.5641 96.8147 62.5641 97.0383 62.5641 97.3737V100.029H61.8372V97.4016C61.8372 97.0942 61.8093 96.8706 61.7534 96.7309C61.6974 96.5911 61.5856 96.4793 61.4458 96.3675C61.3061 96.2837 61.1383 96.2278 60.9426 96.2278C60.6351 96.2278 60.3556 96.3396 60.1319 96.5352C59.9083 96.7309 59.7965 97.0942 59.7965 97.6532V100.001H59.0976V100.029ZM66.5058 98.4357L67.2326 98.5475C67.1487 99.0506 66.9531 99.414 66.6455 99.6934C66.3101 99.9729 65.9187 100.113 65.4714 100.113C64.8844 100.113 64.4091 99.917 64.0457 99.5257C63.6823 99.1345 63.5145 98.6034 63.5145 97.8768C63.5145 97.4016 63.5984 97.0104 63.7382 96.647C63.878 96.3116 64.1296 96.0321 64.4371 95.8645C64.7446 95.6968 65.08 95.6129 65.4714 95.6129C65.9467 95.6129 66.3101 95.7247 66.6176 95.9762C66.9251 96.1998 67.0928 96.5352 67.1767 96.9824L66.4778 97.0942C66.4219 96.8147 66.2821 96.5911 66.1144 96.4514C65.9467 96.3116 65.723 96.2278 65.4994 96.2278C65.136 96.2278 64.8284 96.3675 64.6048 96.6191C64.3812 96.8706 64.2693 97.2898 64.2693 97.8768C64.2693 98.4637 64.3812 98.8829 64.6048 99.1345C64.8284 99.386 65.108 99.5257 65.4714 99.5257C65.751 99.5257 66.0026 99.4419 66.1983 99.2742C66.338 99.0786 66.4778 98.7991 66.5058 98.4357ZM70.6711 99.4699C70.3916 99.6934 70.14 99.8611 69.8884 99.945C69.6368 100.029 69.3572 100.085 69.0777 100.085C68.6024 100.085 68.239 99.9729 67.9874 99.7493C67.7358 99.5257 67.596 99.2183 67.596 98.855C67.596 98.6314 67.6519 98.4637 67.7358 98.268C67.8197 98.1004 67.9594 97.9606 68.0992 97.8488C68.267 97.737 68.4347 97.6532 68.6304 97.5973C68.7702 97.5693 68.9938 97.5134 69.2734 97.4855C69.8604 97.4296 70.3077 97.3457 70.5873 97.2339C70.5873 97.1221 70.5873 97.0662 70.5873 97.0383C70.5873 96.7309 70.5313 96.5352 70.3916 96.4234C70.1959 96.2557 69.9163 96.1719 69.5529 96.1719C69.2174 96.1719 68.9658 96.2278 68.7981 96.3396C68.6304 96.4514 68.5186 96.675 68.4347 96.9824L67.7078 96.8706C67.7638 96.5632 67.8756 96.3116 68.0154 96.1439C68.1551 95.9483 68.3788 95.8086 68.6583 95.6968C68.9379 95.585 69.2733 95.557 69.6368 95.557C70.0002 95.557 70.3077 95.6129 70.5313 95.6968C70.755 95.7806 70.9227 95.8924 71.0345 96.0321C71.1464 96.1719 71.2302 96.3396 71.2582 96.5352C71.2861 96.647 71.2861 96.8706 71.2861 97.206V98.1842C71.2861 98.855 71.3141 99.2742 71.3421 99.4699C71.37 99.6375 71.4259 99.8332 71.5098 100.001H70.755C70.727 99.8611 70.6991 99.6934 70.6711 99.4699ZM70.6152 97.8488C70.3636 97.9606 69.9443 98.0445 69.4131 98.1283C69.1056 98.1842 68.9099 98.2121 68.7702 98.268C68.6583 98.3239 68.5465 98.4078 68.4906 98.4916C68.4347 98.6034 68.3788 98.7152 68.3788 98.827C68.3788 99.0227 68.4626 99.1904 68.6024 99.3022C68.7422 99.4419 68.9658 99.4978 69.2454 99.4978C69.525 99.4978 69.7765 99.4419 70.0002 99.3022C70.2238 99.1904 70.3916 99.0227 70.4754 98.7991C70.5593 98.6314 70.5873 98.3798 70.5873 98.0724L70.6152 97.8488ZM72.4603 100.029V95.7247H73.1032V96.3955C73.271 96.088 73.4387 95.8924 73.5785 95.7806C73.7183 95.6688 73.886 95.6409 74.0537 95.6409C74.3053 95.6409 74.5569 95.7247 74.8085 95.8645L74.5569 96.5352C74.3892 96.4234 74.1935 96.3955 74.0258 96.3955C73.858 96.3955 73.7183 96.4514 73.6064 96.5352C73.4667 96.6191 73.3828 96.7588 73.3269 96.9265C73.243 97.178 73.2151 97.4575 73.2151 97.765V100.001H72.4603V100.029ZM78.1632 98.6314L78.918 98.7432C78.8061 99.1904 78.5825 99.5258 78.247 99.7773C77.9395 100.029 77.5202 100.141 77.017 100.141C76.402 100.141 75.8988 99.945 75.5354 99.5537C75.1719 99.1624 74.9763 98.6314 74.9763 97.9327C74.9763 97.206 75.1719 96.647 75.5354 96.2557C75.8988 95.8645 76.402 95.6688 76.989 95.6688C77.5761 95.6688 78.0234 95.8645 78.3868 96.2557C78.7502 96.647 78.9459 97.206 78.9459 97.9047C78.9459 97.9606 78.9459 98.0165 78.9459 98.1004H75.7311C75.759 98.5755 75.8988 98.9388 76.1224 99.1904C76.374 99.4419 76.6536 99.5537 77.017 99.5537C77.2965 99.5537 77.5202 99.4699 77.6879 99.3301C77.9116 99.1624 78.0513 98.9388 78.1632 98.6314ZM75.787 97.4575H78.1911C78.1632 97.0942 78.0793 96.8147 77.9116 96.647C77.6879 96.3675 77.3804 96.2278 77.017 96.2278C76.6815 96.2278 76.402 96.3396 76.1783 96.5632C75.9267 96.7868 75.787 97.0662 75.787 97.4575Z" fill="white"/>
<path d="M44.6727 96.9825H35.0001V98.1005H44.6727V96.9825Z" fill="url(#paint12_linear_2004_15)"/>
<path d="M92.0573 96.9826H82.3847V98.1005H92.0573V96.9826Z" fill="url(#paint13_linear_2004_15)"/>
<path d="M58.5949 65.3722C69.3715 65.3722 78.1077 56.6381 78.1077 45.8639C78.1077 35.0898 69.3715 26.3556 58.5949 26.3556C47.8182 26.3556 39.082 35.0898 39.082 45.8639C39.082 56.6381 47.8182 65.3722 58.5949 65.3722Z" fill="url(#paint14_radial_2004_15)" stroke="#231F20" stroke-width="0.15271" stroke-miterlimit="2.6131"/>
<path fill-rule="evenodd" clip-rule="evenodd" d="M58.5951 25.2379C64.0743 25.2379 69.302 27.3899 73.1878 31.2748C77.0736 35.1597 79.2261 40.3582 79.2261 45.8641C79.2261 51.3421 77.0736 56.5685 73.1878 60.4534C69.302 64.3383 64.1023 66.4904 58.5951 66.4904C53.1158 66.4904 47.8881 64.3383 44.0023 60.4534C40.1165 56.5685 37.964 51.37 37.964 45.8641C37.964 40.3861 40.1165 35.1597 44.0023 31.2748C47.8881 27.3899 53.1158 25.2379 58.5951 25.2379ZM70.8954 33.5387C67.6246 30.2687 63.2357 28.452 58.5951 28.452C53.9545 28.452 49.5655 30.2687 46.2947 33.5387C43.0239 36.8087 41.2068 41.1966 41.2068 45.8362C41.2068 50.4757 43.0239 54.8636 46.2947 58.1336C49.5655 61.4037 53.9545 63.2203 58.5951 63.2203C63.2357 63.2203 67.6246 61.4037 70.8954 58.1336C74.1662 54.8636 75.9833 50.4757 75.9833 45.8362C75.9833 41.2246 74.1662 36.8366 70.8954 33.5387Z" fill="#000001"/>
<path fill-rule="evenodd" clip-rule="evenodd" d="M58.5948 25.9646C64.102 25.9646 69.0781 28.2005 72.6564 31.8059C76.2626 35.4113 78.4991 40.3862 78.4991 45.8642C78.4991 51.3701 76.2626 56.345 72.6564 59.9225C69.0502 63.5279 64.0741 65.7358 58.5948 65.7358C53.0876 65.7358 48.1116 63.4999 44.5333 59.9225C40.927 56.3171 38.7186 51.3422 38.7186 45.8642C38.7186 40.3583 40.955 35.3834 44.5333 31.8059C48.1116 28.1726 53.0876 25.9646 58.5948 25.9646ZM71.3984 33.0357C68.1276 29.7657 63.5989 27.7254 58.5669 27.7254C53.5629 27.7254 49.0341 29.7657 45.7354 33.0357C42.4646 36.3057 40.4238 40.8334 40.4238 45.8642C40.4238 50.867 42.4646 55.3947 45.7354 58.6927C49.0061 61.9627 53.5349 64.003 58.5669 64.003C63.5709 64.003 68.0997 61.9627 71.3984 58.6927C74.6692 55.4227 76.7099 50.895 76.7099 45.8642C76.7099 40.8334 74.6971 36.3057 71.3984 33.0357Z" fill="url(#paint15_linear_2004_15)"/>
<path fill-rule="evenodd" clip-rule="evenodd" d="M57.9236 59.8666C64.1017 60.2299 69.4132 55.4227 69.7767 48.9665C70.0562 42.2588 63.0953 37.1162 58.7063 31.9736L58.5665 31.8339L58.4268 31.9736C57.1408 33.3152 55.8549 34.6288 54.5689 35.9703L54.513 36.0262C54.5689 36.0542 54.6248 36.0821 54.6528 36.1101C54.7367 36.166 54.7926 36.1939 54.8485 36.2498C54.9044 36.3057 54.9603 36.3336 55.0442 36.3895C55.1001 36.4454 55.156 36.4734 55.2119 36.5293C55.2678 36.5852 55.3237 36.6131 55.3517 36.669C55.4076 36.7249 55.4355 36.7529 55.4915 36.8088C55.5194 36.8647 55.5753 36.8926 55.6033 36.9485C55.6312 37.0044 55.6871 37.0324 55.7151 37.0883C55.743 37.1442 55.771 37.1721 55.8269 37.228C55.8549 37.2839 55.8828 37.3119 55.9108 37.3678C55.9387 37.4236 55.9667 37.4516 55.9946 37.5075C56.0226 37.5634 56.0506 37.5913 56.0785 37.6472C56.1065 37.7031 56.1344 37.7311 56.1624 37.787C56.1903 37.8429 56.2183 37.8708 56.2183 37.9267C56.2462 37.9826 56.2462 38.0106 56.2742 38.0665C56.3022 38.1224 56.3022 38.1503 56.3301 38.2062C56.3581 38.2621 56.3581 38.2901 56.386 38.346C56.414 38.4019 56.414 38.4298 56.4419 38.4857C56.4419 38.5416 56.4699 38.5696 56.4699 38.6254C56.4699 38.6813 56.4978 38.7093 56.4978 38.7652C56.4978 38.8211 56.5258 38.849 56.5258 38.9049C56.5258 38.9608 56.5538 38.9888 56.5538 39.0447C56.5538 39.1006 56.5538 39.1285 56.5817 39.1844C56.5817 39.2403 56.5817 39.2683 56.5817 39.3242C56.5817 39.3801 56.5817 39.408 56.5817 39.4639C56.5817 39.5198 56.5817 39.5478 56.5817 39.6037C56.5817 39.6596 56.5817 39.6875 56.5817 39.7434C56.5817 39.7993 56.5817 39.8272 56.5817 39.8831C56.5817 39.939 56.5817 39.967 56.5817 40.0229C56.5817 40.0508 56.5817 40.0788 56.5817 40.0788C56.5817 40.0508 56.5817 40.0229 56.5538 40.0229C56.5538 39.967 56.5258 39.939 56.5258 39.8831C56.5258 39.8272 56.4978 39.7993 56.4978 39.7434C56.4699 39.6875 56.4699 39.6596 56.4419 39.6037C56.414 39.5478 56.414 39.5198 56.386 39.4639C56.3581 39.408 56.3581 39.3801 56.3301 39.3242C56.3022 39.2683 56.2742 39.2403 56.2742 39.1844C56.2462 39.1285 56.2183 39.1006 56.1903 39.0447C56.1624 38.9888 56.1344 38.9608 56.1065 38.9049C56.0785 38.849 56.0506 38.8211 56.0226 38.7652C55.9946 38.7093 55.9667 38.6813 55.9108 38.6254C55.8828 38.5696 55.8269 38.5416 55.799 38.4857C55.771 38.4298 55.7151 38.4019 55.6592 38.346C55.6033 38.2901 55.5753 38.2621 55.5194 38.2062C55.4635 38.1503 55.4076 38.1224 55.3517 38.0665C55.2958 38.0106 55.2399 37.9826 55.156 37.9267C55.1839 37.9826 55.2119 38.0106 55.2398 38.0665C55.2678 38.1224 55.2958 38.1503 55.3237 38.2062C55.3517 38.2621 55.3796 38.2901 55.4076 38.346C55.4355 38.4019 55.4635 38.4298 55.4915 38.4857C55.5194 38.5416 55.5474 38.5696 55.5753 38.6254C55.6033 38.6813 55.6312 38.7093 55.6592 38.7652C55.6871 38.8211 55.7151 38.849 55.743 38.9049C55.771 38.9608 55.799 38.9888 55.8269 39.0447C55.8549 39.1006 55.8828 39.1285 55.9108 39.1844C55.9387 39.2403 55.9667 39.2683 55.9946 39.3242C56.0226 39.3801 56.0506 39.408 56.0506 39.4639C56.0785 39.5198 56.1065 39.5478 56.1065 39.6037C56.1344 39.6596 56.1624 39.6875 56.1624 39.7434C56.1903 39.7993 56.2183 39.8272 56.2183 39.8831C56.2462 39.939 56.2462 39.967 56.2742 40.0229C56.3022 40.0788 56.3022 40.1067 56.3301 40.1626C56.3581 40.2185 56.3581 40.2465 56.386 40.3024C56.414 40.3583 56.414 40.3862 56.4419 40.4421C56.4699 40.498 56.4699 40.526 56.4978 40.5819C56.5258 40.6378 56.5258 40.6657 56.5538 40.7216C56.5538 40.7496 56.5817 40.7775 56.5817 40.8055C56.5538 40.7775 56.5258 40.7496 56.4699 40.7496C56.414 40.6937 56.3581 40.6657 56.2742 40.6098C56.2183 40.5539 56.1624 40.526 56.1065 40.4701C56.0506 40.4142 55.9946 40.3862 55.9387 40.3303C55.8828 40.2744 55.8549 40.2465 55.799 40.1906C55.743 40.1347 55.7151 40.1067 55.6592 40.0508C55.6033 39.9949 55.5753 39.967 55.5474 39.9111C55.5194 39.8552 55.4635 39.8273 55.4355 39.7714C55.4076 39.7155 55.3517 39.6875 55.3237 39.6316C55.2958 39.5757 55.2678 39.5478 55.2119 39.4919C55.1839 39.436 55.156 39.408 55.128 39.3521C55.1001 39.2962 55.0721 39.2683 55.0442 39.2124C55.0162 39.1565 54.9883 39.1285 54.9603 39.0726C54.9323 39.0167 54.9044 38.9888 54.8764 38.9329C54.8485 38.877 54.8205 38.849 54.7926 38.7931C54.7646 38.7372 54.7367 38.7093 54.7367 38.6534C54.7087 38.5975 54.6807 38.5696 54.6807 38.5137C54.6528 38.4578 54.6528 38.4298 54.6248 38.3739C54.5969 38.318 54.5969 38.2901 54.5689 38.2342C54.541 38.1783 54.541 38.1503 54.513 38.0944C54.4851 38.0385 54.4851 38.0106 54.4571 37.9547C54.4291 37.8988 54.4291 37.8708 54.4012 37.8149C54.4012 37.759 54.3732 37.7311 54.3732 37.6752C54.3732 37.6193 54.3453 37.5913 54.3453 37.5354C54.3453 37.4795 54.3173 37.4516 54.3173 37.3957C54.3173 37.3398 54.2894 37.3119 54.2894 37.256C54.2894 37.2001 54.2614 37.1721 54.2614 37.1162C54.2614 37.0603 54.2614 37.0324 54.2335 36.9765C54.2335 36.9206 54.2335 36.8926 54.2055 36.8367C54.2055 36.7808 54.2055 36.7529 54.2055 36.697C54.2055 36.6411 54.2055 36.6131 54.2055 36.5572C54.2055 36.5013 54.2055 36.4734 54.2055 36.4175C54.2055 36.3895 54.2055 36.3895 54.2055 36.3616L54.1496 36.4175L54.0098 36.5572C51.6336 39.0167 48.894 41.3644 47.8596 44.8021C47.8317 44.858 47.8317 44.886 47.8317 44.9419C47.8317 44.9978 47.8037 45.0257 47.8037 45.0816C47.8037 45.1375 47.7758 45.1655 47.7758 45.2214C47.7758 45.2773 47.7478 45.3052 47.7478 45.3611C47.7478 45.417 47.7198 45.445 47.7198 45.5009C47.7198 45.5568 47.6919 45.5847 47.6919 45.6406C47.6919 45.6965 47.6639 45.7245 47.6639 45.7804C47.6639 45.8363 47.636 45.8642 47.636 45.9201C47.636 45.976 47.608 46.0039 47.608 46.0598C47.608 46.1157 47.5801 46.1437 47.5801 46.1996C47.5801 46.2555 47.5521 46.2834 47.5521 46.3393C47.5521 46.3952 47.5242 46.4232 47.5242 46.4791C47.5242 46.535 47.5242 46.5629 47.4962 46.6188C47.4962 46.6747 47.4962 46.7027 47.4683 46.7586C47.4683 46.8145 47.4683 46.8424 47.4403 46.8983C47.4403 46.9542 47.4403 46.9822 47.4123 47.0381C47.4123 47.066 47.4123 47.094 47.4123 47.1219C47.4403 47.094 47.4962 47.066 47.5242 47.0381C47.5242 47.0381 47.5521 47.0381 47.5521 47.0101C47.636 46.9542 47.6919 46.8983 47.7758 46.8704C47.8596 46.8145 47.9435 46.7586 48.0274 46.7306C48.1112 46.6747 48.1951 46.6188 48.3069 46.5909C48.4187 46.535 48.5026 46.4791 48.6144 46.4511C48.7262 46.3952 48.8381 46.3393 48.9499 46.3114C49.0897 46.2555 49.2294 46.1996 49.3692 46.1716C49.5369 46.1157 49.7326 46.0598 49.9004 46.0319C50.2079 45.948 50.5154 45.8921 50.8229 45.8642C51.2143 45.8083 51.6336 45.8083 52.025 45.8363C52.3325 45.8642 52.64 45.8922 52.9475 45.948C53.1152 45.976 53.3109 46.0319 53.4787 46.0598C53.5625 46.0878 53.6464 46.1157 53.7023 46.1157C53.5625 46.1437 53.4227 46.1716 53.283 46.1996C53.0873 46.2555 52.8636 46.2834 52.668 46.3673C52.5002 46.4232 52.3604 46.4511 52.2207 46.507C52.0809 46.5629 51.9691 46.5909 51.8293 46.6468C51.7175 46.7027 51.6056 46.7306 51.4938 46.7865C51.382 46.8424 51.2981 46.8704 51.2143 46.9263C51.1304 46.9822 51.0465 47.0101 50.9627 47.066C50.8788 47.1219 50.7949 47.1498 50.7111 47.2057C50.6272 47.2616 50.5713 47.2896 50.4874 47.3455C50.4315 47.4014 50.3477 47.4293 50.2917 47.4852C50.2358 47.5411 50.152 47.5691 50.0961 47.625C50.0401 47.6809 49.9842 47.7088 49.9283 47.7647C49.8724 47.8206 49.8165 47.8486 49.7606 47.9045C49.7047 47.9604 49.6488 47.9883 49.5929 48.0442C49.5369 48.1001 49.481 48.1281 49.4531 48.184C49.3972 48.2399 49.3692 48.2678 49.3133 48.3237C49.2574 48.3796 49.2294 48.4075 49.1735 48.4634C49.1176 48.5193 49.0897 48.5473 49.0338 48.6032C48.9778 48.6591 48.9499 48.687 48.9219 48.7429C48.894 48.7988 48.8381 48.8268 48.8101 48.8827C48.7822 48.9386 48.7262 48.9665 48.6983 49.0224C48.6703 49.0783 48.6144 49.1063 48.5865 49.1622C48.5585 49.2181 48.5306 49.246 48.4746 49.3019C48.4467 49.3578 48.4187 49.3858 48.3628 49.4417C48.3349 49.4976 48.3069 49.5255 48.279 49.5814C48.251 49.6373 48.223 49.6652 48.1951 49.7211C48.1671 49.777 48.1392 49.805 48.1112 49.8609C48.0833 49.9168 48.0553 49.9447 48.0274 50.0006C47.9994 50.0565 47.9714 50.0845 47.9435 50.1404C47.9155 50.1963 47.8876 50.2242 47.8596 50.2801C47.8317 50.336 47.8037 50.364 47.7758 50.4199C47.7478 50.4758 47.7198 50.5037 47.7198 50.5596C47.6919 50.6155 47.6639 50.6435 47.6639 50.6994C47.6639 50.7273 47.6639 50.7273 47.636 50.7552C47.636 50.7832 47.636 50.8111 47.6639 50.8391C47.6639 50.895 47.6919 50.9229 47.6919 50.9788C47.6919 51.0347 47.7198 51.0627 47.7198 51.1186C47.7198 51.1745 47.7478 51.2024 47.7478 51.2583C47.7478 51.3142 47.7758 51.3422 47.7758 51.3981C47.7758 51.454 47.8037 51.4819 47.8037 51.5378C47.8037 51.5937 47.8317 51.6217 47.8317 51.6776C47.8317 51.7335 47.8596 51.7614 47.8876 51.8173C47.9155 51.8732 47.9155 51.9012 47.9435 51.9571C47.9714 52.0129 47.9714 52.0409 47.9994 52.0968C48.0274 52.1527 48.0274 52.1806 48.0553 52.2365C48.0833 52.2924 48.0833 52.3204 48.1112 52.3763C48.1392 52.4322 48.1392 52.4601 48.1671 52.516C48.1951 52.5719 48.1951 52.5999 48.223 52.6558C48.251 52.7117 48.251 52.7396 48.279 52.7955C48.3069 52.8514 48.3069 52.8794 48.3349 52.9353C48.3628 52.9912 48.3628 53.0191 48.3908 53.075C48.4187 53.1309 48.4187 53.1589 48.4467 53.2147C48.4746 53.2706 48.5026 53.2986 48.5026 53.3545C48.5306 53.4104 48.5585 53.4383 48.5585 53.4942C48.5865 53.5501 48.6144 53.5781 48.6144 53.634C48.6424 53.6899 48.6703 53.7178 48.6983 53.7737C48.7262 53.8296 48.7542 53.8576 48.7822 53.9135C48.8101 53.9694 48.8381 53.9973 48.866 54.0532C48.894 54.1091 48.9219 54.1371 48.9499 54.193C48.9778 54.2489 49.0058 54.2768 49.0338 54.3327C49.0617 54.3886 49.0897 54.4165 49.1176 54.4724C49.1456 54.5283 49.1735 54.5563 49.2015 54.6122C49.2294 54.6681 49.2574 54.696 49.2854 54.7519C49.3133 54.8078 49.3413 54.8358 49.3692 54.8917C49.3972 54.9476 49.4251 54.9755 49.4531 55.0314C49.481 55.0873 49.509 55.1153 49.537 55.1712C49.5649 55.2271 49.5929 55.255 49.6488 55.3109C49.6767 55.3668 49.7047 55.3948 49.7606 55.4507C49.7885 55.5066 49.8445 55.5345 49.8724 55.5904C49.9004 55.6463 49.9563 55.6742 49.9842 55.7301C49.9842 55.6742 49.9563 55.6463 49.9563 55.5904C49.9563 55.5345 49.9283 55.5066 49.9283 55.4507C49.9283 55.3948 49.9283 55.3668 49.9004 55.3109C49.9004 55.255 49.9004 55.2271 49.8724 55.1712C49.8724 55.1153 49.8724 55.0873 49.8445 55.0314C49.8445 54.9755 49.8445 54.9476 49.8445 54.8917C49.8445 54.8358 49.8445 54.8078 49.8445 54.7519C49.8445 54.696 49.8445 54.6681 49.8445 54.6122C49.8445 54.5563 49.8445 54.5283 49.8445 54.4724C49.8445 54.4165 49.8445 54.3886 49.8445 54.3327C49.8445 54.2768 49.8445 54.2489 49.8445 54.193C49.8445 54.1371 49.8445 54.1091 49.8445 54.0532C49.8445 53.9973 49.8445 53.9694 49.8445 53.9135C49.8445 53.8576 49.8445 53.8296 49.8445 53.7737C49.8445 53.7178 49.8445 53.6899 49.8445 53.634C49.8445 53.5781 49.8445 53.5501 49.8445 53.4942C49.8445 53.4383 49.8445 53.4104 49.8724 53.3545C49.8724 53.2986 49.8724 53.2706 49.9004 53.2147C49.9004 53.1589 49.9004 53.1309 49.9283 53.075C49.9283 53.0191 49.9563 52.9912 49.9563 52.9353C49.9563 52.8794 49.9842 52.8514 49.9842 52.7955C49.9842 52.7396 50.0122 52.7117 50.0122 52.6558C50.0122 52.5999 50.0401 52.5719 50.0401 52.516C50.0401 52.4601 50.0681 52.4322 50.0681 52.3763C50.0681 52.3204 50.0961 52.2924 50.0961 52.2365C50.0961 52.1806 50.124 52.1527 50.124 52.0968C50.152 52.0409 50.152 52.0129 50.1799 51.9571C50.2079 51.9012 50.2079 51.8732 50.2358 51.8173C50.2638 51.7614 50.2638 51.7335 50.2917 51.6776C50.3197 51.6217 50.3197 51.5937 50.3477 51.5378C50.3756 51.4819 50.3756 51.454 50.4036 51.3981C50.4315 51.3422 50.4315 51.3142 50.4595 51.2583C50.4874 51.2024 50.5154 51.1745 50.5154 51.1186C50.5433 51.0627 50.5713 51.0347 50.5713 50.9788C50.5993 50.9229 50.6272 50.895 50.6552 50.8391C50.6831 50.7832 50.7111 50.7553 50.739 50.6994C50.767 50.6435 50.7949 50.6155 50.8229 50.5596C50.8509 50.5037 50.8788 50.4758 50.9068 50.4199C50.9347 50.364 50.9627 50.336 50.9906 50.2801C51.0186 50.2242 51.0465 50.1963 51.0745 50.1404C51.1025 50.0845 51.1304 50.0565 51.1863 50.0006C51.2143 49.9447 51.2702 49.9168 51.2981 49.8609C51.3261 49.805 51.382 49.777 51.41 49.7211C51.4379 49.6652 51.4938 49.6373 51.5218 49.5814C51.5497 49.5255 51.6056 49.4976 51.6336 49.4417C51.6895 49.3858 51.7175 49.3578 51.7734 49.3019C51.8293 49.246 51.8572 49.2181 51.9132 49.1622C51.9691 49.1063 51.997 49.0783 52.0529 49.0224C52.1088 48.9665 52.1648 48.9386 52.2207 48.8827C52.2766 48.8268 52.3325 48.7988 52.3884 48.7429C52.4443 48.687 52.5002 48.6591 52.5561 48.6032C52.612 48.5473 52.668 48.5193 52.7518 48.4634C52.8077 48.4075 52.8916 48.3796 52.9475 48.3237C53.0314 48.2678 53.0873 48.2119 53.1712 48.184C53.255 48.1281 53.3109 48.0722 53.3948 48.0442C53.4787 47.9883 53.5625 47.9324 53.6464 47.9045C53.7303 47.8486 53.8421 47.7927 53.9259 47.7647C54.0378 47.7088 54.1216 47.6529 54.2335 47.625C54.3453 47.5691 54.4571 47.5132 54.5969 47.4852C54.7367 47.4293 54.8764 47.3734 55.0162 47.3455C55.2119 47.2896 55.3796 47.2337 55.5753 47.1778C55.9108 47.094 56.2462 47.0381 56.5817 47.0381C56.4978 47.0939 56.4419 47.1219 56.3581 47.1778C56.2742 47.2337 56.1903 47.2616 56.1065 47.3175C56.0226 47.3734 55.9667 47.4014 55.8828 47.4573C55.799 47.5132 55.743 47.5411 55.6592 47.597C55.6033 47.6529 55.5194 47.6809 55.4635 47.7368C55.4076 47.7927 55.3237 47.8206 55.2678 47.8765C55.2119 47.9324 55.156 47.9604 55.0721 48.0163C55.0162 48.0722 54.9603 48.1001 54.9044 48.156C54.8485 48.2119 54.7926 48.2399 54.7367 48.2957C54.6807 48.3516 54.6248 48.3796 54.5689 48.4355C54.513 48.4914 54.4571 48.5193 54.4291 48.5752C54.3732 48.6311 54.3453 48.6591 54.2894 48.715C54.2335 48.7709 54.2055 48.7988 54.1496 48.8547C54.0937 48.9106 54.0657 48.9386 54.0098 48.9945C53.9539 49.0504 53.9259 49.0783 53.87 49.1342C53.8421 49.1901 53.7862 49.2181 53.7582 49.274C53.7303 49.3299 53.6743 49.3578 53.6464 49.4137C53.6184 49.4696 53.5625 49.4976 53.5346 49.5534C53.5066 49.6093 53.4507 49.6373 53.4227 49.6932C53.3948 49.7491 53.3668 49.777 53.3109 49.8329C53.283 49.8888 53.255 49.9168 53.2271 49.9727C53.1991 50.0286 53.1711 50.0565 53.1432 50.1124C53.1152 50.1683 53.0873 50.1963 53.0593 50.2522C53.0314 50.3081 53.0034 50.336 52.9755 50.3919C52.9475 50.4478 52.9196 50.4758 52.8916 50.5317C52.8636 50.5876 52.8357 50.6155 52.8077 50.6714C52.7798 50.7273 52.7518 50.7552 52.7518 50.8111C52.7239 50.867 52.6959 50.895 52.6959 50.9509C52.668 51.0068 52.668 51.0347 52.64 51.0906C52.612 51.1465 52.612 51.1745 52.5841 51.2304C52.5561 51.2863 52.5561 51.3142 52.5282 51.3701C52.5002 51.426 52.5002 51.454 52.4723 51.5099C52.4443 51.5658 52.4443 51.5937 52.4164 51.6496C52.3884 51.7055 52.3884 51.7335 52.3604 51.7894C52.3604 51.8453 52.3325 51.8732 52.3325 51.9291C52.3325 51.985 52.3045 52.0129 52.3045 52.0688C52.3045 52.1247 52.2766 52.1527 52.2766 52.2086C52.2766 52.2645 52.2486 52.2924 52.2486 52.3483C52.2486 52.4042 52.2207 52.4322 52.2207 52.4881C52.2207 52.544 52.1927 52.5719 52.1927 52.6278C52.1927 52.6837 52.1927 52.7117 52.1648 52.7676C52.1648 52.8235 52.1648 52.8514 52.1368 52.9073C52.1368 52.9632 52.1368 52.9912 52.1368 53.0471C52.1368 53.103 52.1368 53.1309 52.1368 53.1868C52.1368 53.2427 52.1368 53.2706 52.1368 53.3265C52.1368 53.3545 52.1368 53.3824 52.1368 53.3824C52.1368 53.4104 52.1368 53.4383 52.1368 53.4663C52.1368 53.5222 52.1368 53.5501 52.1368 53.606C52.1368 53.6619 52.1368 53.6899 52.1368 53.7458C52.1368 53.8017 52.1368 53.8296 52.1368 53.8855C52.1368 53.9414 52.1368 53.9694 52.1368 54.0253C52.1368 54.0812 52.1368 54.1091 52.1368 54.165C52.1368 54.2209 52.1368 54.2489 52.1648 54.3048C52.1648 54.3606 52.1648 54.3886 52.1927 54.4445C52.1927 54.5004 52.1927 54.5283 52.2207 54.5842C52.2207 54.6401 52.2486 54.6681 52.2486 54.724C52.2486 54.7799 52.2766 54.8078 52.2766 54.8637C52.2766 54.9196 52.3045 54.9476 52.3045 55.0035C52.3045 55.0594 52.3325 55.0873 52.3325 55.1432C52.3325 55.1991 52.3604 55.2271 52.3604 55.283C52.3604 55.3389 52.3884 55.3668 52.3884 55.4227C52.3884 55.4786 52.4164 55.5066 52.4164 55.5624C52.4443 55.6183 52.4443 55.6463 52.4723 55.7022C52.5002 55.7581 52.5002 55.786 52.5282 55.8419C52.5561 55.8978 52.5561 55.9258 52.5841 55.9817C52.612 56.0376 52.612 56.0655 52.64 56.1214C52.668 56.1773 52.668 56.2053 52.6959 56.2612C52.7239 56.3171 52.7239 56.345 52.7518 56.4009C52.7798 56.4568 52.8077 56.4848 52.8077 56.5407C52.8357 56.5966 52.8636 56.6245 52.8636 56.6804C52.8916 56.7363 52.9196 56.7642 52.9475 56.8201C52.9755 56.876 53.0034 56.904 53.0314 56.9599C53.0593 57.0158 53.0873 57.0437 53.1152 57.0996C53.1432 57.1555 53.1712 57.1835 53.1991 57.2394C53.2271 57.2953 53.255 57.3232 53.283 57.3791C53.3109 57.435 53.3389 57.463 53.3668 57.5189C53.3948 57.5748 53.4228 57.6027 53.4787 57.6586C53.5066 57.7145 53.5346 57.7425 53.5905 57.7984C53.6184 57.8543 53.6743 57.8822 53.7023 57.9381C53.7303 57.994 53.7862 58.0219 53.8141 58.0778C53.8421 58.1337 53.898 58.1617 53.9259 58.2176C53.9819 58.2735 54.0098 58.3014 54.0657 58.3573C54.1216 58.4132 54.1496 58.4412 54.2055 58.4971C54.2614 58.553 54.3173 58.5809 54.3453 58.6368C54.4012 58.6927 54.4571 58.7207 54.513 58.7766C54.5689 58.8325 54.6248 58.8604 54.6807 58.9163C54.7367 58.9722 54.8205 59.0002 54.8764 59.0561C54.9323 59.112 55.0162 59.1399 55.1001 59.1958C55.1839 59.2517 55.2678 59.2796 55.3237 59.3355C55.4076 59.3914 55.4914 59.4194 55.6033 59.4753C55.7151 59.5312 55.799 59.5591 55.9108 59.615C56.0506 59.6709 56.1624 59.6989 56.3022 59.7548C56.4978 59.8107 56.6656 59.8386 56.8613 59.8666H56.8892C57.0849 59.8945 57.3085 59.9225 57.5042 59.9504C57.644 59.8386 57.7838 59.8386 57.9236 59.8666ZM59.0977 37.6752C59.1257 37.7311 59.1536 37.759 59.1536 37.8149C59.1816 37.8708 59.1816 37.8988 59.2095 37.9547C59.2375 38.0106 59.2375 38.0385 59.2654 38.0944C59.2934 38.1503 59.2934 38.1783 59.3213 38.2342C59.3493 38.2901 59.3493 38.318 59.3772 38.3739C59.4052 38.4298 59.4052 38.4578 59.4052 38.5137C59.4052 38.5696 59.4332 38.5975 59.4332 38.6534C59.4332 38.7093 59.4611 38.7372 59.4611 38.7931C59.4611 38.849 59.4891 38.877 59.4891 38.9329C59.4891 38.9888 59.517 39.0167 59.517 39.0726C59.517 39.1285 59.517 39.1565 59.545 39.2124C59.545 39.2683 59.545 39.2962 59.5729 39.3521C59.5729 39.408 59.5729 39.436 59.5729 39.4919C59.5729 39.5478 59.5729 39.5757 59.5729 39.6316C59.5729 39.6875 59.5729 39.7155 59.5729 39.7714C59.5729 39.8273 59.5729 39.8552 59.5729 39.9111C59.5729 39.967 59.5729 39.9949 59.5729 40.0508C59.5729 40.1067 59.5729 40.1347 59.5729 40.1906C59.5729 40.2465 59.5729 40.2744 59.5729 40.3303C59.5729 40.3862 59.5729 40.4142 59.545 40.4701C59.545 40.526 59.545 40.5539 59.517 40.6098C59.517 40.6657 59.4891 40.6937 59.4891 40.7496C59.4891 40.8055 59.4611 40.8334 59.4611 40.8893C59.4611 40.9452 59.4332 40.9732 59.4332 41.0291C59.4332 41.0849 59.4052 41.1129 59.4052 41.1688C59.4052 41.2247 59.3772 41.2526 59.3772 41.3085C59.3493 41.3644 59.3493 41.3924 59.3213 41.4483C59.2934 41.5042 59.2934 41.5321 59.2654 41.588C59.2375 41.6439 59.2375 41.6719 59.2095 41.7278C59.1816 41.7837 59.1816 41.8116 59.1536 41.8675C59.1256 41.9234 59.0977 41.9514 59.0977 42.0073C59.0697 42.0632 59.0418 42.0911 59.0138 42.147C58.9859 42.2029 58.9579 42.2309 58.93 42.2867C58.902 42.3426 58.8741 42.3706 58.8461 42.4265C58.8181 42.4824 58.7902 42.5103 58.7622 42.5662C58.7343 42.6221 58.7063 42.6501 58.6504 42.706C58.6225 42.7619 58.5665 42.7898 58.5386 42.8457C58.5106 42.9016 58.4547 42.9296 58.4268 42.9855C58.3988 43.0414 58.3429 43.0693 58.3149 43.1252C58.287 43.1532 58.259 43.2091 58.2031 43.237C58.2311 43.2091 58.2311 43.1811 58.259 43.1252C58.287 43.0693 58.287 43.0414 58.3149 42.9855C58.3429 42.9296 58.3429 42.9016 58.3709 42.8457C58.3988 42.7898 58.3988 42.7619 58.4268 42.706C58.4547 42.6501 58.4547 42.6221 58.4827 42.5662C58.4827 42.5103 58.5106 42.4824 58.5106 42.4265C58.5106 42.3706 58.5386 42.3426 58.5386 42.2867C58.5386 42.2309 58.5665 42.2029 58.5665 42.147C58.5665 42.0911 58.5945 42.0632 58.5945 42.0073C58.5945 41.9514 58.5945 41.9234 58.6225 41.8675C58.6225 41.8116 58.6225 41.7837 58.6225 41.7278C58.6225 41.6719 58.6225 41.6439 58.6225 41.588C58.6225 41.5321 58.6225 41.5042 58.6225 41.4483C58.6225 41.3924 58.6225 41.3644 58.6225 41.3085C58.6225 41.2526 58.6225 41.2247 58.6225 41.1688C58.6225 41.1129 58.6225 41.0849 58.6225 41.0291C58.6225 40.9732 58.6225 40.9452 58.5945 40.8893C58.5945 40.8334 58.5945 40.8055 58.5665 40.7496C58.5665 40.6937 58.5386 40.6657 58.5386 40.6098C58.5386 40.5539 58.5106 40.526 58.5106 40.4701C58.5106 40.4142 58.4827 40.3862 58.4827 40.3303C58.4827 40.2744 58.4547 40.2465 58.4547 40.1906C58.4547 40.1626 58.4547 40.1626 58.4268 40.1347C58.4268 40.1626 58.4268 40.1626 58.4268 40.1906C58.4268 40.2465 58.4268 40.2744 58.4268 40.3303C58.4268 40.3862 58.4268 40.4142 58.4268 40.4701C58.4268 40.526 58.4268 40.5539 58.4268 40.6098C58.4268 40.6657 58.4268 40.6937 58.3988 40.7496C58.3988 40.8055 58.3988 40.8334 58.3709 40.8893C58.3709 40.9452 58.3709 40.9732 58.3429 41.0291C58.3429 41.0849 58.3429 41.1129 58.3149 41.1688C58.3149 41.2247 58.3149 41.2526 58.287 41.3085C58.287 41.3644 58.287 41.3924 58.259 41.4483C58.259 41.5042 58.2311 41.5321 58.2311 41.588C58.2311 41.6439 58.2031 41.6719 58.2031 41.7278C58.2031 41.7837 58.1752 41.8116 58.1752 41.8675C58.1752 41.9234 58.1472 41.9514 58.1472 42.0073C58.1472 42.0632 58.1193 42.0911 58.1193 42.147C58.1193 42.2029 58.0913 42.2309 58.0913 42.2867C58.0913 42.3426 58.0633 42.3706 58.0633 42.4265C58.0633 42.4824 58.0354 42.5103 58.0354 42.5662C58.0354 42.6221 58.0074 42.6501 58.0074 42.706C58.0074 42.7619 57.9795 42.7898 57.9795 42.8457C57.9795 42.9016 57.9515 42.9296 57.9515 42.9855C57.9515 43.0414 57.9236 43.0693 57.9236 43.1252C57.9236 43.1811 57.8956 43.2091 57.8956 43.265C57.8956 43.3209 57.8677 43.3488 57.8677 43.4047C57.8677 43.4606 57.8397 43.4885 57.8397 43.5444C57.8397 43.6003 57.8117 43.6283 57.8117 43.6842C57.7838 43.7401 57.7838 43.768 57.7558 43.8239C57.7558 43.8519 57.7558 43.8519 57.7279 43.8798C57.7279 43.8519 57.7279 43.8519 57.6999 43.8239C57.672 43.768 57.672 43.7401 57.644 43.6842C57.644 43.6283 57.6161 43.6003 57.6161 43.5444C57.6161 43.4885 57.5881 43.4606 57.5881 43.4047C57.5881 43.3488 57.5601 43.3209 57.5601 43.265C57.5601 43.2091 57.5322 43.1811 57.5322 43.1252C57.5322 43.0693 57.5042 43.0414 57.5042 42.9855C57.5042 42.9296 57.4763 42.9016 57.4763 42.8457C57.4763 42.7898 57.4763 42.7619 57.4483 42.706C57.4483 42.6501 57.4483 42.6221 57.4204 42.5662C57.4204 42.5103 57.4204 42.4824 57.4204 42.4265C57.4204 42.3706 57.4204 42.3426 57.4204 42.2867C57.4204 42.2309 57.4204 42.2029 57.4204 42.147C57.4204 42.0911 57.4204 42.0632 57.4204 42.0073C57.4204 41.9514 57.4204 41.9234 57.4204 41.8675C57.4204 41.8116 57.4204 41.7837 57.4204 41.7278C57.4204 41.6719 57.4204 41.6439 57.4204 41.588C57.4204 41.5321 57.4204 41.5042 57.4204 41.4483C57.4204 41.3924 57.4204 41.3644 57.4204 41.3085C57.4204 41.2526 57.4204 41.2247 57.4204 41.1688C57.4204 41.1129 57.4204 41.0849 57.4483 41.0291C57.4483 40.9732 57.4483 40.9452 57.4763 40.8893C57.4763 40.8334 57.5042 40.8055 57.5042 40.7496C57.5042 40.6937 57.5322 40.6657 57.5322 40.6098C57.5322 40.5539 57.5601 40.526 57.5601 40.4701C57.5601 40.4142 57.5881 40.3862 57.5881 40.3303C57.5881 40.2744 57.6161 40.2465 57.6161 40.1906C57.6161 40.1347 57.644 40.1067 57.644 40.0508C57.644 39.9949 57.672 39.967 57.672 39.9111C57.6999 39.8552 57.6999 39.8273 57.7279 39.7714C57.7558 39.7155 57.7558 39.6875 57.7838 39.6316C57.8117 39.5757 57.8117 39.5478 57.8397 39.4919C57.8677 39.436 57.8677 39.408 57.8956 39.3521C57.9236 39.2962 57.9236 39.2683 57.9515 39.2124C57.9795 39.1565 58.0074 39.1285 58.0074 39.0726C58.0354 39.0167 58.0633 38.9888 58.0633 38.9329C58.0913 38.877 58.1193 38.849 58.1472 38.7931C58.1752 38.7372 58.2031 38.7093 58.2311 38.6534C58.259 38.5975 58.287 38.5696 58.3149 38.5137C58.3429 38.4578 58.3709 38.4298 58.3988 38.3739C58.4268 38.318 58.4547 38.2901 58.4827 38.2342C58.5106 38.1783 58.5386 38.1503 58.5665 38.0944C58.5945 38.0385 58.6225 38.0106 58.6784 37.9547C58.7063 37.8988 58.7622 37.8708 58.7902 37.8149C58.8181 37.759 58.8741 37.7311 58.902 37.6752C58.93 37.6193 58.9859 37.5913 59.0138 37.5354C59.0418 37.5913 59.0697 37.6193 59.0977 37.6752ZM52.7798 39.5198C52.8916 39.5478 53.0314 39.6037 53.1432 39.6596C53.255 39.6875 53.3389 39.7434 53.4507 39.7993C53.5346 39.8273 53.6184 39.8832 53.7303 39.939C53.8141 39.9949 53.898 40.0229 53.9819 40.0788C54.0657 40.1347 54.1216 40.1626 54.2055 40.2185C54.2614 40.2744 54.3453 40.3024 54.4012 40.3583C54.4571 40.4142 54.513 40.4421 54.5969 40.498C54.6528 40.5539 54.7087 40.5819 54.7646 40.6378C54.8205 40.6937 54.8764 40.7216 54.9323 40.7775C54.9883 40.8334 55.0442 40.8614 55.0721 40.9173C55.128 40.9732 55.156 41.0011 55.2119 41.057C55.2678 41.1129 55.2958 41.1408 55.3517 41.1967C55.4076 41.2526 55.4355 41.2806 55.4635 41.3365C55.4914 41.3924 55.5474 41.4203 55.5753 41.4762C55.6033 41.5321 55.6592 41.5601 55.6871 41.616C55.7151 41.6719 55.771 41.6998 55.799 41.7557C55.8269 41.8116 55.8549 41.8396 55.9108 41.8955C55.9387 41.9514 55.9667 41.9793 55.9946 42.0352C56.0226 42.0911 56.0506 42.1191 56.0785 42.175C56.1065 42.2309 56.1344 42.2588 56.1624 42.3147C56.1903 42.3706 56.2183 42.3985 56.2462 42.4544C56.2742 42.5103 56.3022 42.5383 56.3301 42.5942C56.3581 42.6501 56.386 42.678 56.414 42.7339C56.4419 42.7898 56.4699 42.8178 56.4699 42.8737C56.4978 42.9296 56.5258 42.9575 56.5258 43.0134C56.5538 43.0693 56.5538 43.0973 56.5817 43.1532C56.6097 43.2091 56.6097 43.237 56.6376 43.2929C56.6656 43.3488 56.6656 43.3768 56.6935 43.4327C56.7215 43.4886 56.7215 43.5165 56.7494 43.5724C56.7774 43.6283 56.7774 43.6562 56.8054 43.7121C56.8333 43.768 56.8333 43.796 56.8613 43.8519C56.8613 43.9078 56.8892 43.9357 56.8892 43.9916C56.8892 44.0475 56.9172 44.0755 56.9172 44.1314C56.9172 44.1593 56.9451 44.2152 56.9451 44.2432C56.8892 44.2152 56.8613 44.1593 56.8054 44.1314C56.7494 44.0755 56.6935 44.0475 56.6656 43.9916C56.6097 43.9357 56.5817 43.9078 56.5258 43.8519C56.4699 43.796 56.4419 43.768 56.386 43.7121C56.3301 43.6562 56.3022 43.6283 56.2462 43.5724C56.1903 43.5165 56.1624 43.4886 56.1065 43.4327C56.0506 43.3768 56.0226 43.3488 55.9667 43.2929C55.9108 43.237 55.8828 43.2091 55.8269 43.1532C55.771 43.0973 55.743 43.0693 55.6871 43.0134C55.6592 42.9575 55.6033 42.9296 55.5753 42.8737C55.5474 42.8178 55.4914 42.7898 55.4635 42.7339C55.4355 42.678 55.3796 42.6501 55.3517 42.5942C55.3237 42.5383 55.2678 42.5103 55.2398 42.4544C55.2119 42.3985 55.156 42.3706 55.128 42.3147C55.1001 42.2588 55.0442 42.2309 55.0162 42.175C54.9883 42.1191 54.9323 42.0911 54.9044 42.0352C54.8764 41.9793 54.8205 41.9514 54.7926 41.8955C54.7646 41.8396 54.7367 41.8116 54.6807 41.7557C54.6528 41.6998 54.6248 41.6719 54.5689 41.616C54.541 41.5601 54.513 41.5321 54.4571 41.4762C54.4291 41.4483 54.4012 41.4203 54.4012 41.3924C54.4012 41.4203 54.4291 41.4483 54.4291 41.4762C54.4291 41.5321 54.4571 41.5601 54.4571 41.616C54.4571 41.6719 54.4851 41.6998 54.513 41.7557C54.541 41.8116 54.541 41.8396 54.5689 41.8955C54.5969 41.9514 54.5969 41.9793 54.6248 42.0352C54.6528 42.0911 54.6528 42.1191 54.6807 42.175C54.7087 42.2309 54.7367 42.2588 54.7367 42.3147C54.7646 42.3706 54.7926 42.3985 54.8205 42.4544C54.8485 42.5103 54.8764 42.5383 54.9044 42.5942C54.9323 42.6501 54.9603 42.678 54.9883 42.7339C55.0162 42.7898 55.0442 42.8178 55.0721 42.8737C55.1001 42.9296 55.128 42.9575 55.1839 43.0134C55.2119 43.0693 55.2678 43.0973 55.2958 43.1532C55.3237 43.2091 55.3796 43.237 55.4076 43.2929C55.4635 43.3488 55.4914 43.3768 55.5474 43.4327C55.6033 43.4886 55.6312 43.5165 55.6871 43.5724C55.743 43.6283 55.799 43.6562 55.8549 43.7121C55.9108 43.768 55.9667 43.796 56.0226 43.8519C56.0785 43.8798 56.1065 43.9078 56.1624 43.9357C56.0506 43.9078 55.9387 43.8798 55.8549 43.8519C55.743 43.8239 55.6033 43.768 55.4915 43.7121C55.3796 43.6842 55.2958 43.6283 55.2119 43.5724C55.128 43.5444 55.0442 43.4886 54.9603 43.4327C54.8764 43.3768 54.8205 43.3488 54.7367 43.2929C54.6807 43.237 54.5969 43.2091 54.541 43.1532C54.4851 43.0973 54.4291 43.0693 54.3732 43.0134C54.3173 42.9575 54.2614 42.9296 54.2055 42.8737C54.1496 42.8178 54.0937 42.7898 54.0657 42.7339C54.0098 42.678 53.9819 42.6501 53.9259 42.5942C53.87 42.5383 53.8421 42.5103 53.7862 42.4544C53.7582 42.3985 53.7023 42.3706 53.6743 42.3147C53.6464 42.2588 53.5905 42.2309 53.5625 42.175C53.5346 42.1191 53.5066 42.0911 53.4507 42.0352C53.4228 41.9793 53.3948 41.9514 53.3668 41.8955C53.3389 41.8396 53.3109 41.8116 53.283 41.7557C53.255 41.6998 53.2271 41.6719 53.1991 41.616C53.1712 41.5601 53.1432 41.5321 53.1152 41.4762C53.0873 41.4203 53.0593 41.3924 53.0314 41.3365C53.0034 41.2806 52.9755 41.2526 52.9755 41.1967C52.9475 41.1408 52.9475 41.1129 52.9196 41.057C52.8916 41.0011 52.8916 40.9732 52.8636 40.9173C52.8357 40.8614 52.8357 40.8334 52.8077 40.7775C52.7798 40.7216 52.7798 40.6937 52.7518 40.6378C52.7239 40.5819 52.7239 40.5539 52.7239 40.498C52.7239 40.4421 52.6959 40.4142 52.6959 40.3583C52.6959 40.3024 52.668 40.2744 52.668 40.2185C52.668 40.1626 52.64 40.1347 52.64 40.0788C52.64 40.0229 52.612 39.9949 52.612 39.939C52.612 39.8832 52.5841 39.8552 52.5841 39.7993C52.5841 39.7434 52.5841 39.7155 52.5561 39.6596C52.5561 39.6037 52.5561 39.5757 52.5561 39.5198C52.5561 39.4919 52.5561 39.4639 52.5561 39.436C52.64 39.4639 52.6959 39.4919 52.7798 39.5198ZM61.7535 40.3862L61.8094 40.526L61.8653 40.6657L61.9212 40.8055L61.9771 40.9452L62.033 41.0849L62.0889 41.2247L62.1169 41.3085C62.1169 41.3365 62.1448 41.3365 62.1448 41.3644C62.1728 41.4203 62.1728 41.4483 62.2007 41.5042C62.2287 41.5601 62.2287 41.588 62.2567 41.6439C62.2846 41.6998 62.2846 41.7278 62.3126 41.7837C62.3405 41.8396 62.3405 41.8675 62.3685 41.9234C62.3964 41.9793 62.3964 42.0073 62.4244 42.0632C62.4523 42.1191 62.4523 42.147 62.4803 42.2029C62.5083 42.2588 62.5083 42.2867 62.5362 42.3426C62.5642 42.3985 62.5642 42.4265 62.5642 42.4824C62.5642 42.5383 62.5921 42.5662 62.5921 42.6221C62.5921 42.6501 62.5921 42.6501 62.5921 42.678C62.5921 42.706 62.6201 42.7339 62.6201 42.7619C62.6201 42.8178 62.648 42.8457 62.648 42.9016C62.648 42.9575 62.676 42.9855 62.676 43.0414C62.676 43.0973 62.7039 43.1252 62.7039 43.1811C62.7039 43.237 62.7319 43.265 62.7319 43.3209C62.7319 43.3768 62.7599 43.4047 62.7599 43.4606C62.7599 43.5165 62.7599 43.5444 62.7878 43.6003C62.7878 43.6562 62.7878 43.6842 62.8158 43.7401C62.8158 43.796 62.8158 43.8239 62.8158 43.8798C62.8158 43.9357 62.8158 43.9637 62.8158 44.0196C62.8158 44.0755 62.8158 44.1034 62.8158 44.1593C62.8158 44.2152 62.8158 44.2432 62.8158 44.2991C62.8158 44.355 62.8158 44.3829 62.8158 44.4388C62.8158 44.4947 62.8158 44.5227 62.8158 44.5786C62.8158 44.6345 62.8158 44.6624 62.8158 44.7183C62.8158 44.7742 62.8158 44.8021 62.8158 44.858C62.8158 44.9139 62.8158 44.9419 62.7878 44.9978C62.7878 45.0537 62.7878 45.0816 62.7599 45.1375C62.7599 45.1934 62.7319 45.2214 62.7319 45.2773C62.7319 45.3332 62.7039 45.3611 62.7039 45.417C62.7039 45.4729 62.676 45.5009 62.676 45.5568V45.5847C62.676 45.6127 62.648 45.6686 62.648 45.6965C62.648 45.7524 62.6201 45.7804 62.6201 45.8363C62.6201 45.8921 62.5921 45.9201 62.5921 45.976C62.5921 46.0319 62.5642 46.0598 62.5642 46.1157C62.5642 46.1716 62.5642 46.1996 62.5362 46.2555C62.5362 46.3114 62.5362 46.3393 62.5083 46.3952C62.5083 46.4511 62.5083 46.4791 62.5083 46.535C62.5083 46.5909 62.5083 46.6188 62.5083 46.6747C62.5083 46.7306 62.5083 46.7586 62.5083 46.8145C62.5083 46.8704 62.5083 46.8983 62.5083 46.9542C62.5083 47.0101 62.5083 47.0381 62.5083 47.0939C62.5083 47.1498 62.5083 47.1778 62.5083 47.2337C62.5083 47.2896 62.5083 47.3175 62.5083 47.3734C62.5083 47.4293 62.5083 47.4573 62.5083 47.5132C62.5083 47.5691 62.5083 47.597 62.5362 47.6529C62.5362 47.7088 62.5362 47.7368 62.5642 47.7927C62.5642 47.8486 62.5642 47.8765 62.5921 47.9324C62.5921 47.9604 62.5921 48.0163 62.6201 48.0442C62.6201 48.0442 62.6201 48.0442 62.6201 48.0722C62.6201 48.1281 62.648 48.156 62.648 48.2119C62.648 48.2678 62.676 48.2957 62.7039 48.3516C62.7319 48.4075 62.7319 48.4355 62.7599 48.4914C62.7878 48.5473 62.7878 48.5752 62.8158 48.6311C62.8437 48.687 62.8437 48.715 62.8717 48.7709C62.8996 48.8268 62.8996 48.8547 62.9276 48.9106C62.9555 48.9665 62.9555 48.9945 62.9835 49.0504C63.0115 49.1063 63.0394 49.1342 63.0394 49.1901C63.0674 49.246 63.0953 49.274 63.0953 49.3299L63.1512 49.4696C63.1792 49.5255 63.2071 49.5534 63.2071 49.6093C63.2351 49.6652 63.2631 49.6932 63.2631 49.7491C63.291 49.805 63.291 49.8329 63.319 49.8888C63.3469 49.9447 63.3469 49.9727 63.3749 50.0286C63.4028 50.0845 63.4028 50.1124 63.4308 50.1683C63.4587 50.2242 63.4587 50.2522 63.4867 50.3081C63.5146 50.364 63.5147 50.3919 63.5426 50.4478C63.5706 50.5037 63.5706 50.5317 63.5985 50.5876C63.6265 50.6435 63.6265 50.6714 63.6544 50.7273C63.6824 50.7832 63.6824 50.8111 63.7103 50.867C63.7103 50.9229 63.7383 50.9509 63.7383 51.0068C63.7383 51.0627 63.7662 51.0906 63.7662 51.1465C63.7662 51.2024 63.7942 51.2304 63.7942 51.2863C63.7942 51.3422 63.7942 51.3701 63.7942 51.426C63.7942 51.4819 63.7942 51.5099 63.7942 51.5658C63.7942 51.6217 63.7662 51.6496 63.7662 51.7055C63.7662 51.7335 63.7383 51.7614 63.7383 51.7614C63.7103 51.7894 63.7103 51.8173 63.6824 51.8453C63.5985 51.9291 63.4867 51.957 63.3469 51.985C63.1792 52.0409 62.9555 52.0688 62.7878 52.1527C62.7039 52.1806 62.6201 52.2365 62.5642 52.2924C62.5362 52.3204 62.5083 52.3483 62.4803 52.3763C62.4523 52.4042 62.4523 52.4322 62.4244 52.4322C62.3964 52.4881 62.3685 52.516 62.3685 52.5719C62.3685 52.6278 62.3405 52.6558 62.3405 52.7117C62.3405 52.7676 62.3405 52.7955 62.3685 52.8514C62.3685 52.9073 62.3964 52.9353 62.4244 52.9912C62.4523 53.0471 62.4803 53.075 62.5083 53.1309C62.5083 53.1588 62.5362 53.1588 62.5362 53.1868C62.5642 53.2147 62.5642 53.2427 62.5921 53.2706C62.6201 53.3265 62.6201 53.3545 62.648 53.4104C62.648 53.4663 62.676 53.4942 62.676 53.5501C62.676 53.606 62.676 53.634 62.648 53.6899C62.648 53.7458 62.6201 53.8017 62.5921 53.8296C62.5642 53.8855 62.5083 53.9414 62.4523 53.9694C62.2846 54.0812 62.033 54.1371 61.8373 54.0532C61.8653 54.0812 61.9212 54.0812 61.9491 54.1091C62.0051 54.1371 62.061 54.193 62.0889 54.2489C62.1169 54.3048 62.1448 54.3327 62.1728 54.3886C62.2007 54.4445 62.2007 54.4724 62.2287 54.5283C62.2287 54.5842 62.2287 54.6122 62.2287 54.6681C62.2287 54.724 62.2287 54.7519 62.2007 54.8078C62.1728 54.8637 62.1728 54.8917 62.1169 54.9476C62.0889 55.0035 62.033 55.0594 61.9771 55.0873C61.8932 55.1432 61.8094 55.1991 61.6696 55.2271C61.6416 55.2271 61.6416 55.2271 61.6137 55.255C61.5298 55.283 61.4739 55.3109 61.446 55.3948C61.418 55.4227 61.418 55.4786 61.418 55.5345V55.5624C61.418 55.5904 61.418 55.6463 61.418 55.6742C61.418 55.7301 61.418 55.7581 61.418 55.814C61.418 55.8699 61.418 55.8978 61.418 55.9537C61.418 56.0096 61.418 56.0376 61.39 56.0935C61.39 56.1494 61.39 56.1773 61.3621 56.2332C61.3621 56.2891 61.3341 56.3171 61.3341 56.373C61.3341 56.4289 61.3062 56.4568 61.3062 56.5127C61.3062 56.5686 61.2782 56.5966 61.2782 56.6525C61.2782 56.7083 61.2503 56.7363 61.2223 56.7922C61.1944 56.8481 61.1944 56.876 61.1664 56.9319C61.1384 56.9878 61.1105 57.0158 61.1105 57.0717C61.0825 57.1276 61.0546 57.1835 61.0266 57.2114C60.9987 57.2394 60.9707 57.2673 60.9428 57.2953C60.9148 57.3232 60.9148 57.3232 60.8868 57.3512C60.803 57.435 60.7191 57.463 60.6073 57.4909C60.5234 57.5189 60.4116 57.5189 60.3277 57.4909C60.16 57.463 59.9923 57.435 59.8245 57.3512C59.7127 57.3232 59.5729 57.2673 59.4611 57.2114C59.3213 57.1555 59.1816 57.1276 59.0418 57.0717C58.6504 56.9599 58.259 56.9319 57.9236 57.0996C57.8397 57.1276 57.7838 57.1835 57.6999 57.2394L57.672 57.2673C57.644 57.2953 57.5881 57.3512 57.5601 57.3791C57.5042 57.435 57.4763 57.463 57.4483 57.5189C57.4204 57.5748 57.3645 57.6027 57.3365 57.6586C57.3085 57.7145 57.2806 57.7425 57.2526 57.7984C57.2247 57.8543 57.1967 57.8822 57.1688 57.9381C57.1408 57.994 57.1129 58.0219 57.1129 58.0778C57.0849 58.1337 57.0849 58.1617 57.0569 58.2176C57.029 58.2735 57.029 58.3014 57.001 58.3573C56.9731 58.4132 56.9731 58.4412 56.9731 58.4971C56.9731 58.553 56.9451 58.5809 56.9451 58.6368C56.9451 58.6927 56.9172 58.7207 56.9172 58.7766C56.9172 58.8325 56.8892 58.8604 56.8892 58.9163C56.8892 58.9722 56.8892 59.0002 56.8892 59.0561C56.8892 59.112 56.8892 59.1399 56.8892 59.1958C56.8892 59.2517 56.8892 59.2796 56.8892 59.3355C56.8892 59.3914 56.8892 59.4194 56.8892 59.4753C56.8892 59.5312 56.8892 59.5591 56.9172 59.615C56.9172 59.6709 56.9451 59.6989 56.9451 59.7548C56.8892 59.6989 56.8333 59.6709 56.7774 59.615C56.7215 59.5591 56.6656 59.5312 56.6097 59.4753C56.5538 59.4194 56.4978 59.3914 56.4419 59.3355C56.386 59.2796 56.3301 59.2517 56.3022 59.1958C56.2462 59.1399 56.1903 59.112 56.1624 59.0561C56.1065 59.0002 56.0785 58.9722 56.0226 58.9163C55.9667 58.8604 55.9387 58.8325 55.8828 58.7766C55.8269 58.7207 55.799 58.6927 55.743 58.6368C55.7151 58.5809 55.6592 58.553 55.6312 58.4971C55.6033 58.4412 55.5474 58.4132 55.5194 58.3573C55.4914 58.3014 55.4355 58.2735 55.4076 58.2176C55.3796 58.1617 55.3237 58.1337 55.2958 58.0778C55.2678 58.0219 55.2399 57.994 55.1839 57.9381C55.156 57.8822 55.128 57.8543 55.1001 57.7984C55.0721 57.7425 55.0442 57.7145 55.0162 57.6586C54.9883 57.6027 54.9603 57.5748 54.9323 57.5189C54.9044 57.463 54.8764 57.435 54.8485 57.3791C54.8205 57.3232 54.7926 57.2953 54.7646 57.2394C54.7367 57.1835 54.7087 57.1555 54.6807 57.0996C54.6528 57.0437 54.6248 57.0158 54.6248 56.9599C54.5969 56.904 54.5689 56.876 54.5689 56.8201C54.541 56.7642 54.541 56.7363 54.513 56.6804C54.4851 56.6245 54.4851 56.5966 54.4571 56.5407C54.4291 56.4848 54.4291 56.4568 54.4012 56.4009C54.3732 56.345 54.3732 56.3171 54.3453 56.2612C54.3173 56.2053 54.3173 56.1773 54.2894 56.1214C54.2614 56.0655 54.2614 56.0376 54.2614 55.9817C54.2614 55.9258 54.2335 55.8978 54.2335 55.8419C54.2335 55.786 54.2055 55.7581 54.2055 55.7022C54.2055 55.6463 54.1775 55.6183 54.1775 55.5624C54.1775 55.5066 54.1496 55.4786 54.1496 55.4227C54.1496 55.3668 54.1216 55.3389 54.1216 55.283C54.1216 55.2271 54.1216 55.1991 54.0937 55.1432C54.0937 55.0873 54.0937 55.0594 54.0657 55.0035C54.0657 54.9476 54.0657 54.9196 54.0657 54.8637C54.0657 54.8078 54.0657 54.7799 54.0657 54.724C54.0657 54.6681 54.0657 54.6401 54.0657 54.5842C54.0657 54.5283 54.0657 54.5004 54.0657 54.4445C54.0657 54.3886 54.0657 54.3606 54.0657 54.3048C54.0657 54.2489 54.0657 54.2209 54.0657 54.165C54.0657 54.1091 54.0657 54.0812 54.0657 54.0253C54.0657 53.9694 54.0657 53.9414 54.0657 53.8855C54.0657 53.8296 54.0657 53.8017 54.0937 53.7458C54.0937 53.6899 54.0937 53.6619 54.1216 53.606C54.1216 53.5501 54.1496 53.5222 54.1496 53.4663C54.1496 53.4104 54.1775 53.3824 54.1775 53.3265C54.1775 53.2706 54.2055 53.2427 54.2055 53.1868C54.2055 53.1309 54.2335 53.103 54.2335 53.0471C54.2335 52.9912 54.2614 52.9632 54.2614 52.9073C54.2614 52.8514 54.2894 52.8235 54.2894 52.7676C54.3173 52.7117 54.3173 52.6837 54.3453 52.6278C54.3732 52.5719 54.3732 52.544 54.4012 52.4881C54.4291 52.4322 54.4291 52.4042 54.4571 52.3483C54.4851 52.2924 54.4851 52.2645 54.513 52.2086C54.541 52.1527 54.541 52.1247 54.5689 52.0688C54.5969 52.0129 54.6248 51.985 54.6248 51.9291C54.6528 51.8732 54.6807 51.8453 54.6807 51.7894C54.7087 51.7335 54.7367 51.7055 54.7646 51.6496C54.7926 51.5937 54.8205 51.5658 54.8485 51.5099C54.8764 51.454 54.9044 51.426 54.9323 51.3701C54.9603 51.3142 54.9883 51.2863 55.0162 51.2304C55.0442 51.1745 55.0721 51.1465 55.1001 51.0906C55.128 51.0347 55.156 51.0068 55.1839 50.9509C55.2119 50.895 55.2399 50.867 55.2958 50.8111C55.3237 50.7552 55.3517 50.7273 55.4076 50.6714C55.4355 50.6155 55.4914 50.5876 55.5194 50.5317C55.5474 50.4758 55.6033 50.4478 55.6312 50.3919C55.6592 50.336 55.7151 50.3081 55.743 50.2522C55.771 50.1963 55.8269 50.1683 55.8549 50.1124C55.9108 50.0565 55.9387 50.0286 55.9946 49.9727C56.0506 49.9168 56.0785 49.8888 56.1344 49.8329C56.1903 49.777 56.2183 49.7491 56.2742 49.6932C56.3301 49.6373 56.3581 49.6093 56.414 49.5534C56.4699 49.4976 56.5258 49.4696 56.5817 49.4137C56.6376 49.3578 56.6935 49.3299 56.7494 49.274C56.8054 49.2181 56.8613 49.1901 56.9172 49.1342C56.9451 49.1342 56.9451 49.1063 56.9731 49.1063C57.001 49.0783 57.057 49.0224 57.0849 48.9945C57.1408 48.9386 57.1967 48.9106 57.2526 48.8547C57.3086 48.7988 57.3645 48.7709 57.4204 48.715L57.5881 48.5752L57.7558 48.4355C57.8117 48.3796 57.8677 48.3516 57.9236 48.2957C57.9795 48.2399 58.0354 48.2119 58.0913 48.156C58.1472 48.1001 58.2031 48.0722 58.259 48.0163C58.3149 47.9604 58.3709 47.9324 58.4268 47.8765C58.4827 47.8206 58.5386 47.7927 58.5945 47.7368C58.6504 47.6809 58.7063 47.6529 58.7622 47.597C58.8181 47.5411 58.8741 47.5132 58.902 47.4573C58.9579 47.4014 59.0138 47.3734 59.0418 47.3175C59.0977 47.2616 59.1536 47.2337 59.1816 47.1778C59.2375 47.1219 59.2654 47.0939 59.3213 47.0381C59.3772 46.9822 59.4052 46.9542 59.4611 46.8983C59.517 46.8424 59.545 46.8145 59.6009 46.7586C59.6568 46.7027 59.6848 46.6747 59.7407 46.6188C59.7966 46.5629 59.8245 46.535 59.8804 46.4791C59.9364 46.4232 59.9643 46.3952 59.9923 46.3393C60.0202 46.2834 60.0761 46.2555 60.1041 46.1996C60.132 46.1437 60.188 46.1157 60.2159 46.0598C60.2439 46.0039 60.2998 45.976 60.3277 45.9201C60.3557 45.8642 60.4116 45.8363 60.4396 45.7804C60.4675 45.7245 60.4955 45.6965 60.5514 45.6406C60.5793 45.5847 60.6073 45.5568 60.6352 45.5009C60.6632 45.445 60.6912 45.417 60.7191 45.3611C60.7471 45.3052 60.775 45.2773 60.803 45.2214C60.8309 45.1655 60.8589 45.1375 60.8868 45.0816C60.9148 45.0257 60.9427 44.9978 60.9707 44.9419C60.9987 44.886 61.0266 44.858 61.0546 44.8021C61.0825 44.7462 61.1105 44.7183 61.1384 44.6624C61.1664 44.6065 61.1943 44.5786 61.1943 44.5227C61.2223 44.4668 61.2503 44.4388 61.2503 44.3829C61.2782 44.327 61.2782 44.2991 61.3062 44.2432C61.3341 44.1873 61.3341 44.1593 61.3621 44.1034C61.39 44.0475 61.39 44.0196 61.418 43.9637C61.4459 43.9078 61.4459 43.8798 61.4739 43.8239C61.5019 43.768 61.5019 43.7401 61.5298 43.6842C61.5578 43.6283 61.5578 43.6003 61.5578 43.5444C61.5578 43.4885 61.5857 43.4606 61.5857 43.4047C61.5857 43.3488 61.6137 43.3209 61.6137 43.265C61.6137 43.2091 61.6416 43.1811 61.6416 43.1252C61.6416 43.0693 61.6696 43.0414 61.6696 42.9855C61.6696 42.9296 61.6975 42.9016 61.6975 42.8457C61.6975 42.7898 61.7255 42.7619 61.7255 42.706C61.7255 42.6501 61.7255 42.6221 61.7535 42.5662C61.7535 42.5103 61.7535 42.4824 61.7814 42.4265C61.7814 42.3706 61.7814 42.3426 61.8094 42.2867C61.8094 42.2309 61.8094 42.2029 61.8094 42.147C61.8094 42.0911 61.8094 42.0632 61.8094 42.0073C61.8094 41.9514 61.8094 41.9234 61.8094 41.8675C61.8094 41.8116 61.8094 41.7837 61.8094 41.7278C61.8094 41.6719 61.8094 41.6439 61.8094 41.588C61.8094 41.5601 61.8094 41.5042 61.8094 41.4762V41.4483V41.3085V41.1688V41.0291V40.8893V40.7496V40.6098L61.7535 40.3862Z" fill="url(#paint16_linear_2004_15)"/>
</g>
<defs>
<radialGradient id="paint0_radial_2004_15" cx="0" cy="0" r="1" gradientUnits="userSpaceOnUse" gradientTransform="translate(63.7225 55.4751) scale(75.5035 75.4858)">
<stop stop-color="#484647"/>
<stop offset="1" stop-color="#000001"/>
</radialGradient>
<linearGradient id="paint1_linear_2004_15" x1="71.6285" y1="-85.394" x2="20.748" y2="176.425" gradientUnits="userSpaceOnUse">
<stop stop-color="#D7AB3D"/>
<stop offset="0.18" stop-color="#FBF5AF"/>
<stop offset="0.32" stop-color="#F4D170"/>
<stop offset="0.43" stop-color="#DDAD3F"/>
<stop offset="0.7" stop-color="#F5DD80"/>
<stop offset="0.84" stop-color="#D7AB3D"/>
<stop offset="1" stop-color="#905F26"/>
</linearGradient>
<linearGradient id="paint2_linear_2004_15" x1="68.7194" y1="-85.2408" x2="17.8941" y2="176.294" gradientUnits="userSpaceOnUse">
<stop stop-color="#D7AB3D"/>
<stop offset="0.18" stop-color="#FBF5AF"/>
<stop offset="0.32" stop-color="#F4D170"/>
<stop offset="0.43" stop-color="#DDAD3F"/>
<stop offset="0.7" stop-color="#F5DD80"/>
<stop offset="0.84" stop-color="#D7AB3D"/>
<stop offset="1" stop-color="#905F26"/>
</linearGradient>
<linearGradient id="paint3_linear_2004_15" x1="65.6049" y1="-84.0729" x2="15.3027" y2="174.77" gradientUnits="userSpaceOnUse">
<stop stop-color="#D7AB3D"/>
<stop offset="0.18" stop-color="#FBF5AF"/>
<stop offset="0.32" stop-color="#F4D170"/>
<stop offset="0.43" stop-color="#DDAD3F"/>
<stop offset="0.7" stop-color="#F5DD80"/>
<stop offset="0.84" stop-color="#D7AB3D"/>
<stop offset="1" stop-color="#905F26"/>
</linearGradient>
<linearGradient id="paint4_linear_2004_15" x1="61.5204" y1="-78.4824" x2="13.6211" y2="167.996" gradientUnits="userSpaceOnUse">
<stop stop-color="#D7AB3D"/>
<stop offset="0.18" stop-color="#FBF5AF"/>
<stop offset="0.32" stop-color="#F4D170"/>
<stop offset="0.43" stop-color="#DDAD3F"/>
<stop offset="0.7" stop-color="#F5DD80"/>
<stop offset="0.84" stop-color="#D7AB3D"/>
<stop offset="1" stop-color="#905F26"/>
</linearGradient>
<linearGradient id="paint5_linear_2004_15" x1="56.9326" y1="-71.0564" x2="12.5347" y2="157.405" gradientUnits="userSpaceOnUse">
<stop stop-color="#D7AB3D"/>
<stop offset="0.18" stop-color="#FBF5AF"/>
<stop offset="0.32" stop-color="#F4D170"/>
<stop offset="0.43" stop-color="#DDAD3F"/>
<stop offset="0.7" stop-color="#F5DD80"/>
<stop offset="0.84" stop-color="#D7AB3D"/>
<stop offset="1" stop-color="#905F26"/>
</linearGradient>
<linearGradient id="paint6_linear_2004_15" x1="74.6168" y1="-85.394" x2="23.7363" y2="176.425" gradientUnits="userSpaceOnUse">
<stop stop-color="#D7AB3D"/>
<stop offset="0.18" stop-color="#FBF5AF"/>
<stop offset="0.32" stop-color="#F4D170"/>
<stop offset="0.43" stop-color="#DDAD3F"/>
<stop offset="0.7" stop-color="#F5DD80"/>
<stop offset="0.84" stop-color="#D7AB3D"/>
<stop offset="1" stop-color="#905F26"/>
</linearGradient>
<linearGradient id="paint7_linear_2004_15" x1="74.1031" y1="7.67138" x2="58.9889" y2="85.4458" gradientUnits="userSpaceOnUse">
<stop stop-color="#D7AB3D"/>
<stop offset="0.18" stop-color="#FBF5AF"/>
<stop offset="0.32" stop-color="#F4D170"/>
<stop offset="0.43" stop-color="#DDAD3F"/>
<stop offset="0.7" stop-color="#F5DD80"/>
<stop offset="0.84" stop-color="#D7AB3D"/>
<stop offset="1" stop-color="#905F26"/>
</linearGradient>
<linearGradient id="paint8_linear_2004_15" x1="76.2214" y1="2.77066" x2="59.1736" y2="90.4947" gradientUnits="userSpaceOnUse">
<stop stop-color="#D7AB3D"/>
<stop offset="0.18" stop-color="#FBF5AF"/>
<stop offset="0.32" stop-color="#F4D170"/>
<stop offset="0.43" stop-color="#DDAD3F"/>
<stop offset="0.7" stop-color="#F5DD80"/>
<stop offset="0.84" stop-color="#D7AB3D"/>
<stop offset="1" stop-color="#905F26"/>
</linearGradient>
<radialGradient id="paint9_radial_2004_15" cx="0" cy="0" r="1" gradientUnits="userSpaceOnUse" gradientTransform="translate(81.0412 54.4767) scale(2.62946 2.62884)">
<stop stop-color="#F6DD7D"/>
<stop offset="0.29" stop-color="#F5DD80"/>
<stop offset="1" stop-color="#DCB526"/>
</radialGradient>
<radialGradient id="paint10_radial_2004_15" cx="0" cy="0" r="1" gradientUnits="userSpaceOnUse" gradientTransform="translate(80.3265 27.1254) scale(4.25347 4.25247)">
<stop stop-color="#F6DD7D"/>
<stop offset="0.29" stop-color="#F5DD80"/>
<stop offset="1" stop-color="#DCB526"/>
</radialGradient>
<linearGradient id="paint11_linear_2004_15" x1="23.64" y1="71.5602" x2="22.0902" y2="78.275" gradientUnits="userSpaceOnUse">
<stop stop-color="#D7AB3D"/>
<stop offset="0.18" stop-color="#FBF5AF"/>
<stop offset="0.32" stop-color="#F4D170"/>
<stop offset="0.43" stop-color="#DDAD3F"/>
<stop offset="0.7" stop-color="#F5DD80"/>
<stop offset="0.84" stop-color="#D7AB3D"/>
<stop offset="1" stop-color="#905F26"/>
</linearGradient>
<linearGradient id="paint12_linear_2004_15" x1="35.0095" y1="97.5324" x2="44.6716" y2="97.5324" gradientUnits="userSpaceOnUse">
<stop stop-color="#D7AB3D"/>
<stop offset="0.18" stop-color="#FBF5AF"/>
<stop offset="0.32" stop-color="#F4D170"/>
<stop offset="0.43" stop-color="#DDAD3F"/>
<stop offset="0.7" stop-color="#F5DD80"/>
<stop offset="0.84" stop-color="#D7AB3D"/>
<stop offset="1" stop-color="#905F26"/>
</linearGradient>
<linearGradient id="paint13_linear_2004_15" x1="82.3901" y1="97.5325" x2="92.0522" y2="97.5325" gradientUnits="userSpaceOnUse">
<stop stop-color="#D7AB3D"/>
<stop offset="0.18" stop-color="#FBF5AF"/>
<stop offset="0.32" stop-color="#F4D170"/>
<stop offset="0.43" stop-color="#DDAD3F"/>
<stop offset="0.7" stop-color="#F5DD80"/>
<stop offset="0.84" stop-color="#D7AB3D"/>
<stop offset="1" stop-color="#905F26"/>
</linearGradient>
<radialGradient id="paint14_radial_2004_15" cx="0" cy="0" r="1" gradientUnits="userSpaceOnUse" gradientTransform="translate(60.1534 44.6807) scale(24.9747 24.9688)">
<stop stop-color="#484647"/>
<stop offset="1" stop-color="#000001"/>
</radialGradient>
<linearGradient id="paint15_linear_2004_15" x1="62.8399" y1="24.0016" x2="54.3472" y2="67.703" gradientUnits="userSpaceOnUse">
<stop stop-color="#D7AB3D"/>
<stop offset="0.18" stop-color="#FBF5AF"/>
<stop offset="0.32" stop-color="#F4D170"/>
<stop offset="0.43" stop-color="#DDAD3F"/>
<stop offset="0.7" stop-color="#F5DD80"/>
<stop offset="0.84" stop-color="#D7AB3D"/>
<stop offset="1" stop-color="#905F26"/>
</linearGradient>
<linearGradient id="paint16_linear_2004_15" x1="54.8559" y1="27.4841" x2="61.3324" y2="64.2226" gradientUnits="userSpaceOnUse">
<stop stop-color="#D7AB3D"/>
<stop offset="0.18" stop-color="#FBF5AF"/>
<stop offset="0.32" stop-color="#F4D170"/>
<stop offset="0.43" stop-color="#DDAD3F"/>
<stop offset="0.7" stop-color="#F5DD80"/>
<stop offset="0.84" stop-color="#D7AB3D"/>
<stop offset="1" stop-color="#905F26"/>
</linearGradient>
<clipPath id="clip0_2004_15">
<rect width="118" height="118" fill="white"/>
</clipPath>
</defs>
</svg>
