<svg width="20" height="20" viewBox="0 0 20 20" fill="none" xmlns="http://www.w3.org/2000/svg">
<path d="M14.167 11.6663C14.6272 11.6663 15.0003 11.2932 15.0003 10.833C15.0003 10.3728 14.6272 9.99967 14.167 9.99967C13.7068 9.99967 13.3337 10.3728 13.3337 10.833C13.3337 11.2932 13.7068 11.6663 14.167 11.6663Z" fill="white"/>
<path d="M14.167 14.9997C14.6272 14.9997 15.0003 14.6266 15.0003 14.1663C15.0003 13.7061 14.6272 13.333 14.167 13.333C13.7068 13.333 13.3337 13.7061 13.3337 14.1663C13.3337 14.6266 13.7068 14.9997 14.167 14.9997Z" fill="white"/>
<path d="M10.8337 10.833C10.8337 11.2932 10.4606 11.6663 10.0003 11.6663C9.54009 11.6663 9.16699 11.2932 9.16699 10.833C9.16699 10.3728 9.54009 9.99967 10.0003 9.99967C10.4606 9.99967 10.8337 10.3728 10.8337 10.833Z" fill="white"/>
<path d="M10.8337 14.1663C10.8337 14.6266 10.4606 14.9997 10.0003 14.9997C9.54009 14.9997 9.16699 14.6266 9.16699 14.1663C9.16699 13.7061 9.54009 13.333 10.0003 13.333C10.4606 13.333 10.8337 13.7061 10.8337 14.1663Z" fill="white"/>
<path d="M5.83366 11.6663C6.2939 11.6663 6.66699 11.2932 6.66699 10.833C6.66699 10.3728 6.2939 9.99967 5.83366 9.99967C5.37342 9.99967 5.00033 10.3728 5.00033 10.833C5.00033 11.2932 5.37342 11.6663 5.83366 11.6663Z" fill="white"/>
<path d="M5.83366 14.9997C6.2939 14.9997 6.66699 14.6266 6.66699 14.1663C6.66699 13.7061 6.2939 13.333 5.83366 13.333C5.37342 13.333 5.00033 13.7061 5.00033 14.1663C5.00033 14.6266 5.37342 14.9997 5.83366 14.9997Z" fill="white"/>
<path fill-rule="evenodd" clip-rule="evenodd" d="M5.83366 1.45801C6.17884 1.45801 6.45866 1.73783 6.45866 2.08301V2.71861C7.01032 2.708 7.6181 2.708 8.28654 2.70801H11.714C12.3825 2.708 12.9903 2.708 13.542 2.71861V2.08301C13.542 1.73783 13.8218 1.45801 14.167 1.45801C14.5122 1.45801 14.792 1.73783 14.792 2.08301V2.77225C15.0086 2.78876 15.2137 2.80952 15.4078 2.83562C16.3849 2.96698 17.1757 3.24374 17.7993 3.86738C18.4229 4.49101 18.6997 5.2818 18.831 6.25882C18.9587 7.20816 18.9587 8.42118 18.9587 9.95263V11.7134C18.9587 13.2448 18.9587 14.4579 18.831 15.4072C18.6997 16.3842 18.4229 17.175 17.7993 17.7986C17.1757 18.4223 16.3849 18.699 15.4078 18.8304C14.4585 18.958 13.2455 18.958 11.714 18.958H8.28665C6.7552 18.958 5.54215 18.958 4.59281 18.8304C3.61579 18.699 2.825 18.4223 2.20136 17.7986C1.57773 17.175 1.30096 16.3842 1.1696 15.4072C1.04197 14.4578 1.04198 13.2448 1.04199 11.7134V9.95266C1.04198 8.42119 1.04197 7.20817 1.1696 6.25882C1.30096 5.2818 1.57773 4.49101 2.20136 3.86738C2.825 3.24374 3.61579 2.96698 4.59281 2.83562C4.78691 2.80952 4.99204 2.78876 5.20866 2.77225V2.08301C5.20866 1.73783 5.48848 1.45801 5.83366 1.45801ZM4.75937 4.07447C3.92096 4.18719 3.43792 4.39859 3.08525 4.75126C2.73257 5.10393 2.52118 5.58697 2.40846 6.42538C2.38937 6.56737 2.37341 6.71685 2.36006 6.87467H17.6406C17.6272 6.71685 17.6113 6.56737 17.5922 6.42538C17.4795 5.58697 17.2681 5.10393 16.9154 4.75126C16.5627 4.39859 16.0797 4.18719 15.2413 4.07447C14.3849 3.95933 13.256 3.95801 11.667 3.95801H8.33366C6.74464 3.95801 5.61575 3.95933 4.75937 4.07447ZM2.29199 9.99967C2.29199 9.288 2.29226 8.66861 2.3029 8.12467H17.6978C17.7084 8.66861 17.7087 9.288 17.7087 9.99967V11.6663C17.7087 13.2554 17.7073 14.3842 17.5922 15.2406C17.4795 16.079 17.2681 16.5621 16.9154 16.9148C16.5627 17.2674 16.0797 17.4788 15.2413 17.5915C14.3849 17.7067 13.256 17.708 11.667 17.708H8.33366C6.74464 17.708 5.61575 17.7067 4.75937 17.5915C3.92096 17.4788 3.43792 17.2674 3.08525 16.9148C2.73257 16.5621 2.52118 16.079 2.40846 15.2406C2.29332 14.3842 2.29199 13.2554 2.29199 11.6663V9.99967Z" fill="white"/>
</svg>
