<svg width="20" height="20" viewBox="0 0 20 20" fill="none" xmlns="http://www.w3.org/2000/svg">
<path d="M14.166 11.6663C14.6263 11.6663 14.9993 11.2932 14.9993 10.833C14.9993 10.3728 14.6263 9.99967 14.166 9.99967C13.7058 9.99967 13.3327 10.3728 13.3327 10.833C13.3327 11.2932 13.7058 11.6663 14.166 11.6663Z" fill="#666666"/>
<path d="M14.166 14.9997C14.6263 14.9997 14.9993 14.6266 14.9993 14.1663C14.9993 13.7061 14.6263 13.333 14.166 13.333C13.7058 13.333 13.3327 13.7061 13.3327 14.1663C13.3327 14.6266 13.7058 14.9997 14.166 14.9997Z" fill="#666666"/>
<path d="M10.8327 10.833C10.8327 11.2932 10.4596 11.6663 9.99935 11.6663C9.53911 11.6663 9.16602 11.2932 9.16602 10.833C9.16602 10.3728 9.53911 9.99967 9.99935 9.99967C10.4596 9.99967 10.8327 10.3728 10.8327 10.833Z" fill="#666666"/>
<path d="M10.8327 14.1663C10.8327 14.6266 10.4596 14.9997 9.99935 14.9997C9.53911 14.9997 9.16602 14.6266 9.16602 14.1663C9.16602 13.7061 9.53911 13.333 9.99935 13.333C10.4596 13.333 10.8327 13.7061 10.8327 14.1663Z" fill="#666666"/>
<path d="M5.83268 11.6663C6.29292 11.6663 6.66602 11.2932 6.66602 10.833C6.66602 10.3728 6.29292 9.99967 5.83268 9.99967C5.37245 9.99967 4.99935 10.3728 4.99935 10.833C4.99935 11.2932 5.37245 11.6663 5.83268 11.6663Z" fill="#666666"/>
<path d="M5.83268 14.9997C6.29292 14.9997 6.66602 14.6266 6.66602 14.1663C6.66602 13.7061 6.29292 13.333 5.83268 13.333C5.37245 13.333 4.99935 13.7061 4.99935 14.1663C4.99935 14.6266 5.37245 14.9997 5.83268 14.9997Z" fill="#666666"/>
<path fill-rule="evenodd" clip-rule="evenodd" d="M5.83268 1.45801C6.17786 1.45801 6.45768 1.73783 6.45768 2.08301V2.71861C7.00935 2.708 7.61712 2.708 8.28556 2.70801H11.713C12.3815 2.708 12.9893 2.708 13.541 2.71861V2.08301C13.541 1.73783 13.8208 1.45801 14.166 1.45801C14.5112 1.45801 14.791 1.73783 14.791 2.08301V2.77225C15.0076 2.78876 15.2128 2.80952 15.4069 2.83562C16.3839 2.96698 17.1747 3.24374 17.7983 3.86738C18.4219 4.49101 18.6987 5.2818 18.8301 6.25882C18.9577 7.20816 18.9577 8.42118 18.9577 9.95263V11.7134C18.9577 13.2448 18.9577 14.4579 18.8301 15.4072C18.6987 16.3842 18.4219 17.175 17.7983 17.7986C17.1747 18.4223 16.3839 18.699 15.4069 18.8304C14.4575 18.958 13.2445 18.958 11.7131 18.958H8.28567C6.75422 18.958 5.54117 18.958 4.59183 18.8304C3.61481 18.699 2.82402 18.4223 2.20039 17.7986C1.57675 17.175 1.29998 16.3842 1.16863 15.4072C1.04099 14.4578 1.041 13.2448 1.04102 11.7134V9.95266C1.041 8.42119 1.04099 7.20817 1.16863 6.25882C1.29998 5.2818 1.57675 4.49101 2.20039 3.86738C2.82402 3.24374 3.61481 2.96698 4.59183 2.83562C4.78594 2.80952 4.99106 2.78876 5.20768 2.77225V2.08301C5.20768 1.73783 5.48751 1.45801 5.83268 1.45801ZM4.75839 4.07447C3.91998 4.18719 3.43694 4.39859 3.08427 4.75126C2.73159 5.10393 2.5202 5.58697 2.40748 6.42538C2.38839 6.56737 2.37243 6.71685 2.35909 6.87467H17.6396C17.6263 6.71685 17.6103 6.56737 17.5912 6.42538C17.4785 5.58697 17.2671 5.10393 16.9144 4.75126C16.5618 4.39859 16.0787 4.18719 15.2403 4.07447C14.3839 3.95933 13.255 3.95801 11.666 3.95801H8.33268C6.74367 3.95801 5.61478 3.95933 4.75839 4.07447ZM2.29102 9.99967C2.29102 9.288 2.29128 8.66861 2.30192 8.12467H17.6968C17.7074 8.66861 17.7077 9.288 17.7077 9.99967V11.6663C17.7077 13.2554 17.7064 14.3842 17.5912 15.2406C17.4785 16.079 17.2671 16.5621 16.9144 16.9148C16.5618 17.2674 16.0787 17.4788 15.2403 17.5915C14.3839 17.7067 13.255 17.708 11.666 17.708H8.33268C6.74367 17.708 5.61478 17.7067 4.75839 17.5915C3.91998 17.4788 3.43694 17.2674 3.08427 16.9148C2.73159 16.5621 2.5202 16.079 2.40748 15.2406C2.29234 14.3842 2.29102 13.2554 2.29102 11.6663V9.99967Z" fill="#666666"/>
</svg>
