<svg width="32" height="32" viewBox="0 0 32 32" fill="none" xmlns="http://www.w3.org/2000/svg">
<circle cx="16" cy="16" r="16" fill="#12BC60"/>
<g clip-path="url(#clip0_2138_5669)">
<path d="M21.1531 11.3098C21.5169 11.1309 21.9826 11.1892 22.2883 11.4567C22.5185 11.6473 22.6521 11.9384 22.6654 12.2356V12.2895C22.6531 12.4369 22.6247 12.5853 22.5581 12.7184C22.482 12.8827 22.3531 13.0134 22.2258 13.1389C19.7865 15.578 17.3479 18.0179 14.9083 20.4567C14.7159 20.6543 14.4526 20.7858 14.1742 20.7942C13.8685 20.8111 13.5677 20.6788 13.3557 20.4616C12.1578 19.2655 10.9615 18.0676 9.76406 16.871C9.64036 16.7494 9.51693 16.6215 9.44193 16.4632C9.37526 16.3314 9.34635 16.185 9.33203 16.0395V15.9483C9.35677 15.5738 9.58307 15.2184 9.92344 15.0554C10.2161 14.908 10.5776 14.9106 10.8685 15.0613C11.0544 15.1527 11.1938 15.3103 11.3385 15.4538C12.268 16.3837 13.199 17.3126 14.1276 18.2436C16.3138 16.0637 18.4943 13.8777 20.6786 11.6955C20.8221 11.5509 20.9654 11.3968 21.1531 11.3098Z" fill="white"/>
</g>
<defs>
<clipPath id="clip0_2138_5669">
<rect width="13.3333" height="13.3333" fill="white" transform="translate(9.33203 9.33203)"/>
</clipPath>
</defs>
</svg>
