<svg width="52" height="48" viewBox="0 0 52 48" fill="none" xmlns="http://www.w3.org/2000/svg">
<path d="M20.1939 26.5609H26.8889V40.9609C26.8889 43.0809 29.7489 44.0809 31.2655 42.4809L47.6672 25.2809C49.0972 23.7809 47.9489 21.4409 45.7822 21.4409H39.0872V7.04092C39.0872 4.92092 36.2272 3.92092 34.7105 5.52092L18.3089 22.7209C16.9005 24.2209 18.0489 26.5609 20.1939 26.5609Z" fill="#EFC004"/>
<path d="M18.4167 9.5H3.25C2.36167 9.5 1.625 8.82 1.625 8C1.625 7.18 2.36167 6.5 3.25 6.5H18.4167C19.305 6.5 20.0417 7.18 20.0417 8C20.0417 8.82 19.305 9.5 18.4167 9.5Z" fill="#EFC004"/>
<path d="M16.25 41.5H3.25C2.36167 41.5 1.625 40.82 1.625 40C1.625 39.18 2.36167 38.5 3.25 38.5H16.25C17.1383 38.5 17.875 39.18 17.875 40C17.875 40.82 17.1383 41.5 16.25 41.5Z" fill="#EFC004"/>
<path d="M9.75 25.5H3.25C2.36167 25.5 1.625 24.82 1.625 24C1.625 23.18 2.36167 22.5 3.25 22.5H9.75C10.6383 22.5 11.375 23.18 11.375 24C11.375 24.82 10.6383 25.5 9.75 25.5Z" fill="#EFC004"/>
</svg>
