<svg width="19" height="18" viewBox="0 0 19 18" fill="none" xmlns="http://www.w3.org/2000/svg">
<path d="M9.50008 10.4174C11.3889 10.4174 12.9201 8.88621 12.9201 6.99739C12.9201 5.10858 11.3889 3.57739 9.50008 3.57739C7.61127 3.57739 6.08008 5.10858 6.08008 6.99739C6.08008 8.88621 7.61127 10.4174 9.50008 10.4174Z" stroke="#151515" stroke-width="0.5" stroke-miterlimit="10" stroke-linecap="round" stroke-linejoin="round"/>
<path d="M9.50009 11.8124C12.1593 11.8124 14.3151 9.65662 14.3151 6.99737C14.3151 4.33812 12.1593 2.18237 9.50009 2.18237C6.84084 2.18237 4.68509 4.33812 4.68509 6.99737C4.68509 9.65662 6.84084 11.8124 9.50009 11.8124Z" stroke="#151515" stroke-width="0.5" stroke-miterlimit="10" stroke-linecap="round" stroke-linejoin="round"/>
<path d="M4.64008 6.99731H3.33508C3.33508 10.3723 6.08009 13.1623 9.50009 13.1623C12.9201 13.1623 15.6651 10.4173 15.6651 6.99731H14.3601" stroke="#151515" stroke-width="0.5" stroke-miterlimit="10" stroke-linecap="round" stroke-linejoin="round"/>
<path d="M9.50006 4.97241C10.6251 4.97241 11.5251 5.87241 11.5251 6.99741" stroke="#151515" stroke-width="0.5" stroke-miterlimit="10" stroke-linecap="round" stroke-linejoin="round"/>
<path d="M10.3325 13.1626H8.71246V14.1976H10.3325V13.1626Z" stroke="#151515" stroke-width="0.5" stroke-miterlimit="10" stroke-linecap="round" stroke-linejoin="round"/>
<path d="M13.1675 15.0526C10.7375 13.8826 8.30746 13.9276 5.83246 15.0526V15.8176H13.1675V15.0526Z" stroke="#151515" stroke-width="0.5" stroke-miterlimit="10" stroke-linecap="round" stroke-linejoin="round"/>
</svg>
