<svg width="24" height="25" viewBox="0 0 24 25" fill="none" xmlns="http://www.w3.org/2000/svg">
<path fill-rule="evenodd" clip-rule="evenodd" d="M9.94358 3.6855H14.0564C15.8942 3.68549 17.3498 3.68547 18.489 3.83864C19.6614 3.99626 20.6104 4.32838 21.3588 5.07674C22.1071 5.82511 22.4392 6.77406 22.5969 7.94648C22.75 9.08569 22.75 10.5413 22.75 12.3791V12.4919C22.75 14.3297 22.75 15.7853 22.5969 16.9245C22.4392 18.0969 22.1071 19.0459 21.3588 19.7943C20.6104 20.5426 19.6614 20.8747 18.489 21.0324C17.3498 21.1855 15.8942 21.1855 14.0564 21.1855H9.94359C8.10583 21.1855 6.65019 21.1855 5.51098 21.0324C4.33856 20.8747 3.38961 20.5426 2.64124 19.7943C1.89288 19.0459 1.56076 18.0969 1.40314 16.9245C1.24997 15.7853 1.24998 14.3297 1.25 12.4919V12.3791C1.24998 10.5413 1.24997 9.08569 1.40314 7.94648C1.56076 6.77406 1.89288 5.82511 2.64124 5.07674C3.38961 4.32838 4.33856 3.99626 5.51098 3.83864C6.65019 3.68547 8.10582 3.68549 9.94358 3.6855ZM5.71085 5.32526C4.70476 5.46053 4.12511 5.7142 3.7019 6.1374C3.27869 6.56061 3.02502 7.14026 2.88976 8.14635C2.75159 9.17402 2.75 10.5287 2.75 12.4355C2.75 14.3423 2.75159 15.697 2.88976 16.7247C3.02502 17.7307 3.27869 18.3104 3.7019 18.7336C4.12511 19.1568 4.70476 19.4105 5.71085 19.5457C6.73851 19.6839 8.09318 19.6855 10 19.6855H14C15.9068 19.6855 17.2615 19.6839 18.2892 19.5457C19.2952 19.4105 19.8749 19.1568 20.2981 18.7336C20.7213 18.3104 20.975 17.7307 21.1102 16.7247C21.2484 15.697 21.25 14.3423 21.25 12.4355C21.25 10.5287 21.2484 9.17402 21.1102 8.14635C20.975 7.14026 20.7213 6.56061 20.2981 6.1374C19.8749 5.71419 19.2952 5.46053 18.2892 5.32526C17.2615 5.18709 15.9068 5.1855 14 5.1855H10C8.09318 5.1855 6.73851 5.18709 5.71085 5.32526ZM5.42383 7.95536C5.68901 7.63716 6.16193 7.59416 6.48014 7.85934L8.63903 9.65842C9.57199 10.4359 10.2197 10.9739 10.7666 11.3256C11.2959 11.6661 11.6549 11.7804 12 11.7804C12.3451 11.7804 12.7041 11.6661 13.2334 11.3256C13.7803 10.9739 14.428 10.4359 15.361 9.65841L17.5199 7.85934C17.8381 7.59416 18.311 7.63716 18.5762 7.95536C18.8413 8.27357 18.7983 8.74649 18.4801 9.01167L16.2836 10.8421C15.3973 11.5807 14.6789 12.1794 14.0448 12.5872C13.3843 13.012 12.7411 13.2804 12 13.2804C11.2589 13.2804 10.6157 13.012 9.95518 12.5872C9.32112 12.1794 8.60272 11.5807 7.71636 10.8421L5.51986 9.01167C5.20165 8.74649 5.15866 8.27357 5.42383 7.95536Z" fill="#F2F2F2"/>
</svg>
