<svg width="24" height="25" viewBox="0 0 24 25" fill="none" xmlns="http://www.w3.org/2000/svg">
<path fill-rule="evenodd" clip-rule="evenodd" d="M3.17157 5.90058C2 7.07215 2 8.95777 2 12.729C2 16.5002 2 18.3859 3.17157 19.5574C4.34315 20.729 6.22876 20.729 10 20.729H14C17.7712 20.729 19.6569 20.729 20.8284 19.5574C22 18.3859 22 16.5002 22 12.729C22 8.95777 22 7.07215 20.8284 5.90058C19.6569 4.729 17.7712 4.729 14 4.729H10C6.22876 4.729 4.34315 4.729 3.17157 5.90058ZM18.5762 8.24887C18.8413 8.56707 18.7983 9.04 18.4801 9.30517L16.2837 11.1356C15.3973 11.8742 14.6789 12.4729 14.0448 12.8807C13.3843 13.3055 12.7411 13.5739 12 13.5739C11.2589 13.5739 10.6157 13.3055 9.95518 12.8807C9.32112 12.4729 8.60271 11.8742 7.71636 11.1356L5.51986 9.30517C5.20165 9.04 5.15866 8.56707 5.42383 8.24887C5.68901 7.93066 6.16193 7.88766 6.48014 8.15284L8.63903 9.95192C9.57199 10.7294 10.2197 11.2674 10.7666 11.6191C11.2959 11.9596 11.6549 12.0739 12 12.0739C12.3451 12.0739 12.7041 11.9596 13.2334 11.6191C13.7803 11.2674 14.428 10.7294 15.361 9.95192L17.5199 8.15284C17.8381 7.88766 18.311 7.93066 18.5762 8.24887Z" fill="#222222"/>
</svg>
