<svg width="32" height="32" viewBox="0 0 32 32" fill="none" xmlns="http://www.w3.org/2000/svg">
<path fill-rule="evenodd" clip-rule="evenodd" d="M13.2581 4.33333H18.7418C21.1922 4.33331 23.133 4.33329 24.652 4.53751C26.2152 4.74768 27.4805 5.19051 28.4783 6.18832C29.4761 7.18614 29.9189 8.45141 30.1291 10.0146C30.3333 11.5336 30.3333 13.4744 30.3333 15.9248V16.0752C30.3333 18.5256 30.3333 20.4664 30.1291 21.9854C29.9189 23.5486 29.4761 24.8139 28.4783 25.8117C27.4805 26.8095 26.2152 27.2523 24.652 27.4625C23.133 27.6667 21.1922 27.6667 18.7418 27.6667H13.2581C10.8077 27.6667 8.86688 27.6667 7.34793 27.4625C5.7847 27.2523 4.51943 26.8095 3.52162 25.8117C2.5238 24.8139 2.08098 23.5486 1.87081 21.9854C1.66659 20.4664 1.66661 18.5256 1.66663 16.0752V15.9248C1.66661 13.4744 1.66659 11.5336 1.87081 10.0146C2.08098 8.45141 2.5238 7.18614 3.52162 6.18832C4.51943 5.19051 5.7847 4.74768 7.34793 4.53751C8.86688 4.33329 10.8077 4.33331 13.2581 4.33333ZM7.61443 6.51968C6.27297 6.70003 5.50011 7.03826 4.93583 7.60254C4.37155 8.16682 4.03333 8.93968 3.85297 10.2811C3.66875 11.6514 3.66663 13.4576 3.66663 16C3.66663 18.5424 3.66875 20.3486 3.85297 21.7189C4.03333 23.0603 4.37155 23.8332 4.93583 24.3975C5.50011 24.9617 6.27297 25.3 7.61442 25.4803C8.98464 25.6645 10.7909 25.6667 13.3333 25.6667H18.6666C21.2091 25.6667 23.0153 25.6645 24.3855 25.4803C25.7269 25.3 26.4998 24.9617 27.0641 24.3975C27.6284 23.8332 27.9666 23.0603 28.1469 21.7189C28.3312 20.3486 28.3333 18.5424 28.3333 16C28.3333 13.4576 28.3312 11.6514 28.1469 10.2811C27.9666 8.93968 27.6284 8.16682 27.0641 7.60254C26.4998 7.03826 25.7269 6.70003 24.3855 6.51968C23.0153 6.33546 21.2091 6.33333 18.6666 6.33333H13.3333C10.7909 6.33333 8.98464 6.33546 7.61443 6.51968ZM7.23174 10.0265C7.5853 9.6022 8.21587 9.54488 8.64014 9.89845L11.5187 12.2972C12.7626 13.3338 13.6263 14.0512 14.3554 14.5202C15.0612 14.9741 15.5399 15.1265 16 15.1265C16.4601 15.1265 16.9387 14.9741 17.6445 14.5202C18.3737 14.0512 19.2373 13.3338 20.4813 12.2972L23.3598 9.89845C23.7841 9.54488 24.4146 9.6022 24.7682 10.0265C25.1217 10.4508 25.0644 11.0813 24.6401 11.4349L21.7115 13.8754C20.5297 14.8603 19.5718 15.6586 18.7264 16.2023C17.8457 16.7687 16.9881 17.1265 16 17.1265C15.0119 17.1265 14.1542 16.7687 13.2735 16.2023C12.4281 15.6586 11.4702 14.8603 10.2884 13.8754L7.35978 11.4349C6.9355 11.0813 6.87817 10.4508 7.23174 10.0265Z" fill="#F2F2F2"/>
</svg>
