<svg width="32" height="32" viewBox="0 0 32 32" fill="none" xmlns="http://www.w3.org/2000/svg">
<path fill-rule="evenodd" clip-rule="evenodd" d="M15.333 2.66602C9.81016 2.66602 5.33301 7.24729 5.33301 12.8986C5.33301 15.9284 6.62104 18.6516 8.66446 20.5239C9.34554 21.1479 9.8501 21.6102 10.2077 21.9457C10.3865 22.1134 10.5232 22.2444 10.6241 22.345C10.6744 22.3951 10.7128 22.4348 10.7415 22.4655C10.7557 22.4807 10.7663 22.4926 10.7741 22.5015C10.7817 22.5101 10.7853 22.5146 10.7853 22.5146C11.1006 22.9128 11.1689 23.0156 11.2095 23.1086C11.2502 23.2017 11.2794 23.3223 11.359 23.8283C11.3904 24.0281 11.3936 24.3703 11.3936 25.3017L11.3936 25.3416C11.3936 25.8871 11.3936 26.3576 11.4278 26.7437C11.4639 27.152 11.544 27.5563 11.759 27.9373C11.9984 28.3616 12.3427 28.7139 12.7572 28.9588C13.1296 29.1788 13.5247 29.2607 13.9237 29.2977C14.3011 29.3327 14.7609 29.3327 15.2939 29.3327H15.3721C15.9052 29.3327 16.365 29.3327 16.7423 29.2977C17.1413 29.2607 17.5364 29.1788 17.9088 28.9588C18.3234 28.7139 18.6676 28.3616 18.907 27.9373C19.122 27.5563 19.2021 27.152 19.2382 26.7437C19.2724 26.3576 19.2724 25.8871 19.2724 25.3416V25.3017C19.2724 24.3703 19.2756 24.0281 19.307 23.8283C19.3866 23.3223 19.4158 23.2017 19.4565 23.1086C19.4971 23.0156 19.5654 22.9128 19.8807 22.5146C19.8807 22.5146 19.884 22.5105 19.8919 22.5015C19.8997 22.4926 19.9104 22.4807 19.9245 22.4655C19.9532 22.4348 19.9917 22.3951 20.0419 22.345C20.1428 22.2444 20.2795 22.1134 20.4583 21.9457C20.8159 21.6102 21.3205 21.1479 22.0016 20.5239C24.045 18.6516 25.333 15.9284 25.333 12.8986C25.333 7.24729 20.8559 2.66602 15.333 2.66602ZM17.4464 26.2319H13.2196C13.2236 26.3612 13.2295 26.4741 13.2385 26.5758C13.2633 26.855 13.305 26.9564 13.3336 27.0071C13.4134 27.1485 13.5281 27.2659 13.6663 27.3476C13.7159 27.3769 13.8149 27.4195 14.0879 27.4449C14.3733 27.4713 14.7498 27.4722 15.333 27.4722C15.9162 27.4722 16.2928 27.4713 16.5782 27.4449C16.8511 27.4195 16.9501 27.3769 16.9997 27.3476C17.1379 27.2659 17.2526 27.1485 17.3324 27.0071C17.361 26.9564 17.4027 26.855 17.4275 26.5758C17.4365 26.4741 17.4425 26.3612 17.4464 26.2319ZM16.8136 10.9013C17.2222 11.1999 17.3168 11.7809 17.025 12.199L15.4544 14.449H17.3242C17.6647 14.449 17.9767 14.6437 18.1325 14.9535C18.2883 15.2634 18.2619 15.6363 18.0639 15.9199L15.4665 19.6408C15.1747 20.0589 14.6069 20.1557 14.1984 19.8571C13.7898 19.5585 13.6952 18.9775 13.987 18.5594L15.5576 16.3094H13.6878C13.3473 16.3094 13.0353 16.1147 12.8795 15.8049C12.7237 15.495 12.7501 15.1221 12.9481 14.8385L15.5455 11.1176C15.8373 10.6995 16.4051 10.6027 16.8136 10.9013Z" fill="#EFC004"/>
</svg>
