<svg width="24" height="24" viewBox="0 0 24 24" fill="none" xmlns="http://www.w3.org/2000/svg">
<path fill-rule="evenodd" clip-rule="evenodd" d="M12.4382 2.77866C12.2931 2.73206 12.1345 2.74335 11.9998 2.80828C11.8523 2.87937 11.7548 3.00344 11.7197 3.13845L11.244 4.97231C11.0777 5.61364 10.8354 6.23222 10.5235 6.81623C10.0392 7.72292 9.30632 8.42025 8.62647 9.00609L7.18773 10.2459C6.96475 10.438 6.8474 10.7261 6.87282 11.02L7.68498 20.4127C7.72601 20.8872 8.12244 21.2502 8.59635 21.2502H13.245C16.3813 21.2502 19.0238 19.068 19.5306 16.1374L20.2361 12.0576C20.3332 11.4961 19.9014 10.9844 19.3348 10.9844H14.1537C13.1766 10.9844 12.4344 10.1078 12.5921 9.14496L13.2548 5.1004C13.3456 4.54638 13.3197 3.97947 13.1787 3.43609C13.1072 3.16033 12.8896 2.92366 12.5832 2.82523L12.4382 2.77866L12.6676 2.0646L12.4382 2.77866ZM11.3486 1.45699C11.8312 1.22444 12.3873 1.18679 12.897 1.35054L13.042 1.39711L12.8126 2.11117L13.042 1.39711C13.819 1.64672 14.4252 2.26744 14.6307 3.05945C14.8241 3.80501 14.8596 4.58281 14.7351 5.34293L14.0724 9.38749C14.0639 9.43925 14.1038 9.48444 14.1537 9.48444H19.3348C20.8341 9.48444 21.9695 10.8368 21.7142 12.3132L21.0087 16.393C20.3708 20.0813 17.0712 22.7502 13.245 22.7502H8.59635C7.3427 22.7502 6.29852 21.7905 6.19056 20.5419L5.3784 11.1493C5.31149 10.3755 5.62022 9.61655 6.20855 9.10957L7.64729 7.86978C8.3025 7.30517 8.85404 6.75791 9.20042 6.10948C9.45699 5.62917 9.65573 5.12131 9.79208 4.59567L10.2678 2.76181C10.417 2.18651 10.8166 1.71334 11.3486 1.45699ZM2.96767 9.48514C3.36893 9.46782 3.71261 9.76969 3.74721 10.1698L4.71881 21.4064C4.78122 22.1281 4.21268 22.7502 3.48671 22.7502C2.80289 22.7502 2.25 22.1955 2.25 21.513V10.2344C2.25 9.83281 2.5664 9.50246 2.96767 9.48514Z" fill="#1C274C"/>
</svg>
