<svg width="32" height="32" viewBox="0 0 32 32" fill="none" xmlns="http://www.w3.org/2000/svg">
<path fill-rule="evenodd" clip-rule="evenodd" d="M7.6435 2.72399C9.26661 1.11009 11.9391 1.39737 13.2982 3.21281L14.9795 5.45868C16.0854 6.93586 15.9878 9.00041 14.6751 10.3056L14.3567 10.6222C14.3428 10.6626 14.3091 10.7895 14.3465 11.0308C14.4308 11.5741 14.8845 12.7267 16.7892 14.6205C18.6933 16.5137 19.854 16.967 20.405 17.0515C20.6547 17.0898 20.7853 17.0541 20.8258 17.04L21.3698 16.4991C22.5367 15.3388 24.3299 15.1219 25.7747 15.9073L28.322 17.2921C30.5033 18.4778 31.0544 21.4428 29.2673 23.2197L27.3732 25.103C26.7765 25.6964 25.9739 26.1912 24.9945 26.2825C22.5825 26.5074 16.9582 26.2205 11.0487 20.3445C5.53149 14.8586 4.47274 10.0747 4.33878 7.71755L5.33717 7.66081L4.33878 7.71755C4.27105 6.52567 4.83427 5.51727 5.5507 4.80491L7.6435 2.72399ZM11.6971 4.4114C11.0216 3.50908 9.76259 3.43733 9.05368 4.14222L6.96088 6.22314C6.52098 6.66054 6.30933 7.14258 6.33556 7.60407C6.44199 9.47687 7.29706 13.7938 12.4589 18.9263C17.8742 24.3108 22.8757 24.4714 24.8089 24.2912C25.2038 24.2544 25.5966 24.0492 25.9631 23.6848L27.8571 21.8015C28.6271 21.0359 28.4572 19.642 27.3668 19.0492L24.8195 17.6645C24.1161 17.2821 23.292 17.4082 22.78 17.9173L22.1727 18.5212L21.4676 17.812C22.1727 18.5212 22.1717 18.5221 22.1708 18.523L22.1688 18.525L22.1648 18.5289L22.1561 18.5373L22.1366 18.5555C22.1226 18.5682 22.1065 18.5823 22.0884 18.5973C22.0522 18.6273 22.0077 18.6612 21.9544 18.6969C21.8477 18.7684 21.7067 18.8462 21.5296 18.9122C21.1684 19.0467 20.6922 19.119 20.1018 19.0284C18.9461 18.8511 17.4151 18.0632 15.3791 16.0388C13.3437 14.015 12.5492 12.4911 12.3702 11.3374C12.2787 10.7475 12.3517 10.2711 12.4878 9.90965C12.5546 9.73253 12.6332 9.5917 12.7054 9.48517C12.7414 9.43205 12.7756 9.38763 12.8059 9.35156C12.821 9.33352 12.8351 9.31755 12.848 9.30359L12.8663 9.28414L12.8747 9.27553L12.8787 9.27149L12.8806 9.26955C12.8815 9.26859 12.8825 9.26764 13.5876 9.97676L12.8825 9.26764L13.2649 8.8874C13.8364 8.31917 13.9164 7.3759 13.3784 6.65727L11.6971 4.4114Z" fill="#F2F2F2"/>
</svg>
