<svg width="24" height="25" viewBox="0 0 24 25" fill="none" xmlns="http://www.w3.org/2000/svg">
<path fill-rule="evenodd" clip-rule="evenodd" d="M5.73268 2.47849C6.95002 1.26807 8.95439 1.48353 9.9737 2.84511L11.2347 4.52951C12.0641 5.6374 11.9909 7.18581 11.0064 8.16472L10.7676 8.40214C10.7572 8.43243 10.7319 8.52764 10.76 8.70859C10.8232 9.11609 11.1635 9.98049 12.592 11.4009C14.02 12.8208 14.8905 13.1608 15.3038 13.2241C15.4911 13.2529 15.5891 13.2261 15.6194 13.2155L16.0274 12.8098C16.9026 11.9396 18.2475 11.7769 19.3311 12.366L21.2416 13.4046C22.8775 14.2939 23.2909 16.5176 21.9505 17.8503L20.53 19.2628C20.0824 19.7078 19.4805 20.0789 18.7459 20.1474C16.9369 20.316 12.7187 20.1008 8.28659 15.6939C4.14868 11.5795 3.35462 7.99149 3.25415 6.22366L4.00294 6.18111L3.25415 6.22366C3.20335 5.32975 3.62576 4.57345 4.16308 4.03918L5.73268 2.47849ZM8.77291 3.74405C8.26628 3.06731 7.322 3.0135 6.79032 3.54217L5.22072 5.10286C4.8908 5.43091 4.73206 5.79244 4.75173 6.13856C4.83156 7.54315 5.47286 10.7808 9.34423 14.6302C13.4057 18.6686 17.1569 18.789 18.6067 18.6539C18.9029 18.6263 19.1975 18.4724 19.4724 18.1991L20.8929 16.7866C21.4704 16.2125 21.343 15.167 20.5252 14.7224L18.6147 13.6838C18.0871 13.3971 17.469 13.4917 17.085 13.8735L16.6296 14.3264L16.1008 13.7945C16.6296 14.3264 16.6289 14.3271 16.6282 14.3278L16.6267 14.3292L16.6236 14.3322L16.6171 14.3385L16.6025 14.3521C16.592 14.3617 16.5799 14.3722 16.5664 14.3834C16.5392 14.4059 16.5058 14.4314 16.4659 14.4582C16.3858 14.5118 16.2801 14.5701 16.1472 14.6196C15.8764 14.7205 15.5192 14.7747 15.0764 14.7068C14.2096 14.5739 13.0614 13.9829 11.5344 12.4646C10.0079 10.9468 9.41194 9.80383 9.2777 8.93855C9.20906 8.4961 9.26381 8.1388 9.36594 7.86774C9.41599 7.7349 9.47497 7.62927 9.5291 7.54938C9.5561 7.50954 9.58179 7.47623 9.60446 7.44917C9.6158 7.43564 9.6264 7.42366 9.63604 7.41319L9.64977 7.39861L9.65606 7.39215L9.65905 7.38912L9.66051 7.38766C9.66122 7.38695 9.66194 7.38624 10.1908 7.91807L9.66194 7.38624L9.94875 7.10105C10.3774 6.67488 10.4374 5.96743 10.0339 5.42846L8.77291 3.74405Z" fill="#F2F2F2"/>
</svg>
