<svg width="32" height="32" viewBox="0 0 32 32" fill="none" xmlns="http://www.w3.org/2000/svg">
<path d="M17.0003 12.0001C17.0003 11.4478 16.5526 11.0001 16.0003 11.0001C15.448 11.0001 15.0003 11.4478 15.0003 12.0001L15.0003 15.0001H12.0003C11.448 15.0001 11.0003 15.4478 11.0003 16.0001C11.0003 16.5524 11.448 17.0001 12.0003 17.0001H15.0003V20.0001C15.0003 20.5524 15.448 21.0001 16.0003 21.0001C16.5526 21.0001 17.0003 20.5524 17.0003 20.0001L17.0003 17.0001H20.0003C20.5526 17.0001 21.0003 16.5524 21.0003 16.0001C21.0003 15.4478 20.5526 15.0001 20.0003 15.0001H17.0003V12.0001Z" fill="white"/>
<path fill-rule="evenodd" clip-rule="evenodd" d="M16.0003 1.66675C8.08424 1.66675 1.66699 8.084 1.66699 16.0001C1.66699 23.9162 8.08424 30.3334 16.0003 30.3334C23.9164 30.3334 30.3337 23.9162 30.3337 16.0001C30.3337 8.084 23.9164 1.66675 16.0003 1.66675ZM3.66699 16.0001C3.66699 9.18857 9.18881 3.66675 16.0003 3.66675C22.8118 3.66675 28.3337 9.18857 28.3337 16.0001C28.3337 22.8116 22.8118 28.3334 16.0003 28.3334C9.18881 28.3334 3.66699 22.8116 3.66699 16.0001Z" fill="white"/>
</svg>
