<svg width="48" height="48" viewBox="0 0 48 48" fill="none" xmlns="http://www.w3.org/2000/svg">
<g clip-path="url(#clip0_2021_2352)">
<path d="M10.548 19C12.6247 19 14.6548 19.6158 16.3815 20.7696C18.1082 21.9233 19.454 23.5632 20.2487 25.4818C21.0435 27.4004 21.2514 29.5117 20.8462 31.5485C20.4411 33.5853 19.4411 35.4562 17.9726 36.9246C16.5042 38.3931 14.6332 39.3931 12.5964 39.7982C10.5596 40.2034 8.44845 39.9955 6.52982 39.2007C4.6112 38.406 2.97132 37.0602 1.81757 35.3335C0.663814 33.6068 0.048 31.5767 0.048 29.5L0 28C0 22.4305 2.21249 17.089 6.15076 13.1508C10.089 9.21249 15.4305 7 21 7V13C19.0293 12.9947 17.0771 13.3801 15.2563 14.134C13.4355 14.8879 11.7822 15.9952 10.392 17.392C9.85168 17.9313 9.35324 18.511 8.901 19.126C9.438 19.042 9.987 18.997 10.545 18.997L10.548 19ZM37.548 19C39.6247 19 41.6548 19.6158 43.3815 20.7696C45.1082 21.9233 46.454 23.5632 47.2487 25.4818C48.0435 27.4004 48.2514 29.5117 47.8462 31.5485C47.4411 33.5853 46.4411 35.4562 44.9726 36.9246C43.5042 38.3931 41.6333 39.3931 39.5965 39.7982C37.5596 40.2034 35.4484 39.9955 33.5298 39.2007C31.6112 38.406 29.9713 37.0602 28.8176 35.3335C27.6638 33.6068 27.048 31.5767 27.048 29.5L27 28C27 22.4305 29.2125 17.089 33.1508 13.1508C37.089 9.21249 42.4305 7 48 7V13C46.0293 12.9947 44.0771 13.3801 42.2563 14.134C40.4355 14.8879 38.7822 15.9952 37.392 17.392C36.8517 17.9313 36.3532 18.511 35.901 19.126C36.438 19.042 36.987 18.997 37.548 18.997V19Z" fill="#EFC004"/>
</g>
<defs>
<clipPath id="clip0_2021_2352">
<rect width="48" height="48" fill="white"/>
</clipPath>
</defs>
</svg>
