<svg width="213" height="38" viewBox="0 0 213 38" fill="none" xmlns="http://www.w3.org/2000/svg">
<path d="M0.779366 14.1263C0.531563 14.0044 0.42946 13.7048 0.551312 13.457C0.673165 13.2092 0.972831 13.1071 1.22063 13.2289L0.779366 14.1263ZM3.76819 14.4618C4.01751 14.5806 4.12336 14.8789 4.00463 15.1283C3.8859 15.3776 3.58754 15.4834 3.33823 15.3647L3.76819 14.4618ZM8.50166 17.7445C8.24944 17.6321 8.13611 17.3365 8.24853 17.0843C8.36095 16.8321 8.65656 16.7187 8.90878 16.8312L8.50166 17.7445ZM14.1074 19.0701C14.3624 19.1762 14.4832 19.4688 14.3772 19.7238C14.2711 19.9788 13.9785 20.0995 13.7235 19.9935L14.1074 19.0701ZM19.0007 22.1098C18.7431 22.0103 18.615 21.7208 18.7145 21.4632C18.814 21.2056 19.1035 21.0775 19.3611 21.177L19.0007 22.1098ZM24.6666 23.1501C24.9266 23.2431 25.062 23.5292 24.9691 23.7892C24.8761 24.0493 24.5899 24.1847 24.3299 24.0917L24.6666 23.1501ZM29.7078 25.9376C29.4455 25.8513 29.3029 25.5687 29.3892 25.3064C29.4755 25.0441 29.7581 24.9014 30.0204 24.9877L29.7078 25.9376ZM35.4189 26.6883C35.6833 26.7679 35.8331 27.0468 35.7535 27.3112C35.6739 27.5756 35.395 27.7255 35.1306 27.6458L35.4189 26.6883ZM40.5953 29.2153C40.329 29.1425 40.1721 28.8675 40.2449 28.6011C40.3177 28.3348 40.5927 28.1779 40.8591 28.2507L40.5953 29.2153ZM46.3376 29.6737C46.6057 29.7397 46.7696 30.0106 46.7036 30.2787C46.6376 30.5469 46.3667 30.7107 46.0985 30.6447L46.3376 29.6737ZM51.6368 31.9331C51.367 31.874 51.1963 31.6074 51.2554 31.3377C51.3145 31.0679 51.5811 30.8972 51.8509 30.9563L51.6368 31.9331ZM57.3949 32.0975C57.6661 32.1497 57.8436 32.4119 57.7913 32.683C57.7391 32.9542 57.477 33.1317 57.2058 33.0795L57.3949 32.0975ZM62.8019 34.0831C62.5295 34.0378 62.3454 33.7803 62.3906 33.5079C62.4359 33.2355 62.6934 33.0513 62.9658 33.0966L62.8019 34.0831ZM68.5608 33.9531C68.8343 33.9914 69.0249 34.2442 68.9866 34.5177C68.9483 34.7911 68.6956 34.9818 68.4221 34.9435L68.5608 33.9531ZM74.0628 35.6604C73.7884 35.629 73.5914 35.3812 73.6227 35.1069C73.6541 34.8325 73.9019 34.6355 74.1762 34.6668L74.0628 35.6604ZM79.8081 35.2373C80.0832 35.2617 80.2864 35.5044 80.2621 35.7795C80.2377 36.0545 79.995 36.2578 79.7199 36.2334L79.8081 35.2373ZM85.3887 36.6627C85.1131 36.6453 84.9038 36.4078 84.9211 36.1323C84.9385 35.8567 85.176 35.6473 85.4516 35.6647L85.3887 36.6627ZM91.1046 35.9492C91.3806 35.9596 91.5959 36.1917 91.5855 36.4676C91.5751 36.7436 91.3429 36.9589 91.067 36.9485L91.1046 35.9492ZM96.7514 37.0911C96.4752 37.0876 96.2542 36.861 96.2577 36.5849C96.2611 36.3087 96.4878 36.0877 96.7639 36.0912L96.7514 37.0911ZM102.426 36.0912C102.702 36.0877 102.928 36.3087 102.932 36.5849C102.935 36.861 102.714 37.0876 102.438 37.0911L102.426 36.0912ZM108.123 36.9485C107.847 36.9589 107.615 36.7436 107.604 36.4676C107.594 36.1917 107.809 35.9596 108.085 35.9492L108.123 36.9485ZM113.738 35.6647C114.014 35.6473 114.251 35.8567 114.268 36.1322C114.286 36.4078 114.076 36.6453 113.801 36.6627L113.738 35.6647ZM119.47 36.2334C119.195 36.2578 118.952 36.0545 118.927 35.7795C118.903 35.5044 119.106 35.2617 119.381 35.2373L119.47 36.2334ZM125.013 34.6668C125.288 34.6355 125.536 34.8325 125.567 35.1069C125.598 35.3812 125.401 35.629 125.127 35.6604L125.013 34.6668ZM130.767 34.9435C130.494 34.9818 130.241 34.7911 130.203 34.5177C130.165 34.2442 130.355 33.9914 130.629 33.9531L130.767 34.9435ZM136.224 33.0966C136.496 33.0513 136.754 33.2355 136.799 33.5079C136.844 33.7803 136.66 34.0378 136.388 34.0831L136.224 33.0966ZM141.984 33.0795C141.713 33.1317 141.45 32.9542 141.398 32.683C141.346 32.4119 141.523 32.1497 141.795 32.0975L141.984 33.0795ZM147.339 30.9563C147.608 30.8972 147.875 31.0679 147.934 31.3377C147.993 31.6074 147.823 31.874 147.553 31.9331L147.339 30.9563ZM153.091 30.6447C152.823 30.7107 152.552 30.5469 152.486 30.2787C152.42 30.0106 152.584 29.7397 152.852 29.6737L153.091 30.6447ZM158.33 28.2507C158.597 28.1779 158.872 28.3347 158.945 28.6011C159.017 28.8675 158.861 29.1425 158.594 29.2153L158.33 28.2507ZM164.059 27.6458C163.795 27.7255 163.516 27.5756 163.436 27.3112C163.356 27.0468 163.506 26.7679 163.771 26.6883L164.059 27.6458ZM169.169 24.9877C169.431 24.9014 169.714 25.0441 169.8 25.3064C169.887 25.5687 169.744 25.8513 169.482 25.9376L169.169 24.9877ZM174.86 24.0917C174.6 24.1847 174.313 24.0493 174.221 23.7892C174.128 23.5292 174.263 23.2431 174.523 23.1501L174.86 24.0917ZM179.828 21.177C180.086 21.0775 180.376 21.2056 180.475 21.4632C180.575 21.7208 180.446 22.0103 180.189 22.1098L179.828 21.177ZM185.466 19.9935C185.211 20.0995 184.918 19.9788 184.812 19.7238C184.706 19.4688 184.827 19.1762 185.082 19.0701L185.466 19.9935ZM190.281 16.8311C190.533 16.7187 190.829 16.8321 190.941 17.0843C191.053 17.3365 190.94 17.6321 190.688 17.7445L190.281 16.8311ZM195.851 15.3647C195.602 15.4834 195.304 15.3776 195.185 15.1283C195.066 14.8789 195.172 14.5806 195.421 14.4618L195.851 15.3647ZM1.22063 13.2289C2.06702 13.6451 2.91622 14.0561 3.76819 14.4618L3.33823 15.3647C2.48247 14.9571 1.6295 14.5443 0.779366 14.1263L1.22063 13.2289ZM8.90878 16.8312C10.631 17.5988 12.364 18.3452 14.1074 19.0701L13.7235 19.9935C11.9723 19.2653 10.2316 18.5156 8.50166 17.7445L8.90878 16.8312ZM19.3611 21.177C21.1196 21.8565 22.8882 22.5143 24.6666 23.1501L24.3299 24.0917C22.5435 23.4531 20.767 22.7923 19.0007 22.1098L19.3611 21.177ZM30.0204 24.9877C31.8106 25.5768 33.6102 26.1438 35.4189 26.6883L35.1306 27.6458C33.3138 27.0989 31.5061 26.5294 29.7078 25.9376L30.0204 24.9877ZM40.8591 28.2507C42.6766 28.7476 44.5028 29.2221 46.3376 29.6737L46.0985 30.6447C44.2555 30.1911 42.421 29.7145 40.5953 29.2153L40.8591 28.2507ZM51.8509 30.9563C53.6909 31.3597 55.539 31.7402 57.3949 32.0975L57.2058 33.0795C55.3416 32.7205 53.4851 32.3383 51.6368 31.9331L51.8509 30.9563ZM62.9658 33.0966C64.8235 33.4053 66.6886 33.6909 68.5608 33.9531L68.4221 34.9435C66.5415 34.6801 64.668 34.3932 62.8019 34.0831L62.9658 33.0966ZM74.1762 34.6668C76.0469 34.8804 77.9243 35.0706 79.8081 35.2373L79.7199 36.2334C77.8277 36.066 75.9419 35.8749 74.0628 35.6604L74.1762 34.6668ZM85.4516 35.6647C87.3299 35.783 89.2144 35.8779 91.1046 35.9492L91.067 36.9485C89.1683 36.8769 87.2755 36.7816 85.3887 36.6627L85.4516 35.6647ZM96.7639 36.0912C97.7062 36.103 98.6498 36.1089 99.5948 36.1089V37.1089C98.6456 37.1089 97.6978 37.1029 96.7514 37.0911L96.7639 36.0912ZM99.5948 36.1089C100.54 36.1089 101.483 36.103 102.426 36.0912L102.438 37.0911C101.492 37.1029 100.544 37.1089 99.5948 37.1089V36.1089ZM108.085 35.9492C109.975 35.8779 111.86 35.783 113.738 35.6647L113.801 36.6627C111.914 36.7816 110.021 36.8769 108.123 36.9485L108.085 35.9492ZM119.381 35.2373C121.265 35.0706 123.143 34.8804 125.013 34.6668L125.127 35.6604C123.248 35.8749 121.362 36.066 119.47 36.2334L119.381 35.2373ZM130.629 33.9531C132.501 33.6909 134.366 33.4053 136.224 33.0966L136.388 34.0831C134.522 34.3932 132.648 34.6801 130.767 34.9435L130.629 33.9531ZM141.795 32.0975C143.651 31.7402 145.499 31.3597 147.339 30.9563L147.553 31.9331C145.704 32.3383 143.848 32.7205 141.984 33.0795L141.795 32.0975ZM152.852 29.6737C154.687 29.2221 156.513 28.7476 158.33 28.2507L158.594 29.2153C156.769 29.7145 154.934 30.1911 153.091 30.6447L152.852 29.6737ZM163.771 26.6883C165.579 26.1438 167.379 25.5768 169.169 24.9877L169.482 25.9376C167.684 26.5293 165.876 27.0989 164.059 27.6458L163.771 26.6883ZM174.523 23.1501C176.301 22.5143 178.07 21.8565 179.828 21.177L180.189 22.1098C178.423 22.7923 176.646 23.4531 174.86 24.0917L174.523 23.1501ZM185.082 19.0701C186.826 18.3452 188.559 17.5988 190.281 16.8311L190.688 17.7445C188.958 18.5156 187.217 19.2653 185.466 19.9935L185.082 19.0701ZM195.421 14.4618C196.273 14.0561 197.123 13.6451 197.969 13.2289L198.41 14.1263C197.56 14.5443 196.707 14.9571 195.851 15.3647L195.421 14.4618ZM0.779366 14.1263C0.531563 14.0044 0.42946 13.7048 0.551312 13.457C0.673165 13.2092 0.972831 13.1071 1.22063 13.2289L0.779366 14.1263ZM3.76819 14.4618C4.01751 14.5806 4.12336 14.8789 4.00463 15.1283C3.8859 15.3776 3.58754 15.4834 3.33823 15.3647L3.76819 14.4618ZM8.50166 17.7445C8.24944 17.6321 8.13611 17.3365 8.24853 17.0843C8.36095 16.8321 8.65656 16.7187 8.90878 16.8312L8.50166 17.7445ZM14.1074 19.0701C14.3624 19.1762 14.4832 19.4688 14.3772 19.7238C14.2711 19.9788 13.9785 20.0995 13.7235 19.9935L14.1074 19.0701ZM19.0007 22.1098C18.7431 22.0103 18.615 21.7208 18.7145 21.4632C18.814 21.2056 19.1035 21.0775 19.3611 21.177L19.0007 22.1098ZM24.6666 23.1501C24.9266 23.2431 25.062 23.5292 24.9691 23.7892C24.8761 24.0493 24.5899 24.1847 24.3299 24.0917L24.6666 23.1501ZM29.7078 25.9376C29.4455 25.8513 29.3029 25.5687 29.3892 25.3064C29.4755 25.0441 29.7581 24.9014 30.0204 24.9877L29.7078 25.9376ZM35.4189 26.6883C35.6833 26.7679 35.8331 27.0468 35.7535 27.3112C35.6739 27.5756 35.395 27.7255 35.1306 27.6458L35.4189 26.6883ZM40.5953 29.2153C40.329 29.1425 40.1721 28.8675 40.2449 28.6011C40.3177 28.3348 40.5927 28.1779 40.8591 28.2507L40.5953 29.2153ZM46.3376 29.6737C46.6057 29.7397 46.7696 30.0106 46.7036 30.2787C46.6376 30.5469 46.3667 30.7107 46.0985 30.6447L46.3376 29.6737ZM51.6368 31.9331C51.367 31.874 51.1963 31.6074 51.2554 31.3377C51.3145 31.0679 51.5811 30.8972 51.8509 30.9563L51.6368 31.9331ZM57.3949 32.0975C57.6661 32.1497 57.8436 32.4119 57.7913 32.683C57.7391 32.9542 57.477 33.1317 57.2058 33.0795L57.3949 32.0975ZM62.8019 34.0831C62.5295 34.0378 62.3454 33.7803 62.3906 33.5079C62.4359 33.2355 62.6934 33.0513 62.9658 33.0966L62.8019 34.0831ZM68.5608 33.9531C68.8343 33.9914 69.0249 34.2442 68.9866 34.5177C68.9483 34.7911 68.6956 34.9818 68.4221 34.9435L68.5608 33.9531ZM74.0628 35.6604C73.7884 35.629 73.5914 35.3812 73.6227 35.1069C73.6541 34.8325 73.9019 34.6355 74.1762 34.6668L74.0628 35.6604ZM79.8081 35.2373C80.0832 35.2617 80.2864 35.5044 80.2621 35.7795C80.2377 36.0545 79.995 36.2578 79.7199 36.2334L79.8081 35.2373ZM85.3887 36.6627C85.1131 36.6453 84.9038 36.4078 84.9211 36.1323C84.9385 35.8567 85.176 35.6473 85.4516 35.6647L85.3887 36.6627ZM91.1046 35.9492C91.3806 35.9596 91.5959 36.1917 91.5855 36.4676C91.5751 36.7436 91.3429 36.9589 91.067 36.9485L91.1046 35.9492ZM96.7514 37.0911C96.4752 37.0876 96.2542 36.861 96.2577 36.5849C96.2611 36.3087 96.4878 36.0877 96.7639 36.0912L96.7514 37.0911ZM102.426 36.0912C102.702 36.0877 102.928 36.3087 102.932 36.5849C102.935 36.861 102.714 37.0876 102.438 37.0911L102.426 36.0912ZM108.123 36.9485C107.847 36.9589 107.615 36.7436 107.604 36.4676C107.594 36.1917 107.809 35.9596 108.085 35.9492L108.123 36.9485ZM113.738 35.6647C114.014 35.6473 114.251 35.8567 114.268 36.1322C114.286 36.4078 114.076 36.6453 113.801 36.6627L113.738 35.6647ZM119.47 36.2334C119.195 36.2578 118.952 36.0545 118.927 35.7795C118.903 35.5044 119.106 35.2617 119.381 35.2373L119.47 36.2334ZM125.013 34.6668C125.288 34.6355 125.536 34.8325 125.567 35.1069C125.598 35.3812 125.401 35.629 125.127 35.6604L125.013 34.6668ZM130.767 34.9435C130.494 34.9818 130.241 34.7911 130.203 34.5177C130.165 34.2442 130.355 33.9914 130.629 33.9531L130.767 34.9435ZM136.224 33.0966C136.496 33.0513 136.754 33.2355 136.799 33.5079C136.844 33.7803 136.66 34.0378 136.388 34.0831L136.224 33.0966ZM141.984 33.0795C141.713 33.1317 141.45 32.9542 141.398 32.683C141.346 32.4119 141.523 32.1497 141.795 32.0975L141.984 33.0795ZM147.339 30.9563C147.608 30.8972 147.875 31.0679 147.934 31.3377C147.993 31.6074 147.823 31.874 147.553 31.9331L147.339 30.9563ZM153.091 30.6447C152.823 30.7107 152.552 30.5469 152.486 30.2787C152.42 30.0106 152.584 29.7397 152.852 29.6737L153.091 30.6447ZM158.33 28.2507C158.597 28.1779 158.872 28.3347 158.945 28.6011C159.017 28.8675 158.861 29.1425 158.594 29.2153L158.33 28.2507ZM164.059 27.6458C163.795 27.7255 163.516 27.5756 163.436 27.3112C163.356 27.0468 163.506 26.7679 163.771 26.6883L164.059 27.6458ZM169.169 24.9877C169.431 24.9014 169.714 25.0441 169.8 25.3064C169.887 25.5687 169.744 25.8513 169.482 25.9376L169.169 24.9877ZM174.86 24.0917C174.6 24.1847 174.313 24.0493 174.221 23.7892C174.128 23.5292 174.263 23.2431 174.523 23.1501L174.86 24.0917ZM179.828 21.177C180.086 21.0775 180.376 21.2056 180.475 21.4632C180.575 21.7208 180.446 22.0103 180.189 22.1098L179.828 21.177ZM185.466 19.9935C185.211 20.0995 184.918 19.9788 184.812 19.7238C184.706 19.4688 184.827 19.1762 185.082 19.0701L185.466 19.9935ZM190.281 16.8311C190.533 16.7187 190.829 16.8321 190.941 17.0843C191.053 17.3365 190.94 17.6321 190.688 17.7445L190.281 16.8311ZM195.851 15.3647C195.602 15.4834 195.304 15.3776 195.185 15.1283C195.066 14.8789 195.172 14.5806 195.421 14.4618L195.851 15.3647ZM1.22063 13.2289C2.06702 13.6451 2.91622 14.0561 3.76819 14.4618L3.33823 15.3647C2.48247 14.9571 1.6295 14.5443 0.779366 14.1263L1.22063 13.2289ZM8.90878 16.8312C10.631 17.5988 12.364 18.3452 14.1074 19.0701L13.7235 19.9935C11.9723 19.2653 10.2316 18.5156 8.50166 17.7445L8.90878 16.8312ZM19.3611 21.177C21.1196 21.8565 22.8882 22.5143 24.6666 23.1501L24.3299 24.0917C22.5435 23.4531 20.767 22.7923 19.0007 22.1098L19.3611 21.177ZM30.0204 24.9877C31.8106 25.5768 33.6102 26.1438 35.4189 26.6883L35.1306 27.6458C33.3138 27.0989 31.5061 26.5294 29.7078 25.9376L30.0204 24.9877ZM40.8591 28.2507C42.6766 28.7476 44.5028 29.2221 46.3376 29.6737L46.0985 30.6447C44.2555 30.1911 42.421 29.7145 40.5953 29.2153L40.8591 28.2507ZM51.8509 30.9563C53.6909 31.3597 55.539 31.7402 57.3949 32.0975L57.2058 33.0795C55.3416 32.7205 53.4851 32.3383 51.6368 31.9331L51.8509 30.9563ZM62.9658 33.0966C64.8235 33.4053 66.6886 33.6909 68.5608 33.9531L68.4221 34.9435C66.5415 34.6801 64.668 34.3932 62.8019 34.0831L62.9658 33.0966ZM74.1762 34.6668C76.0469 34.8804 77.9243 35.0706 79.8081 35.2373L79.7199 36.2334C77.8277 36.066 75.9419 35.8749 74.0628 35.6604L74.1762 34.6668ZM85.4516 35.6647C87.3299 35.783 89.2144 35.8779 91.1046 35.9492L91.067 36.9485C89.1683 36.8769 87.2755 36.7816 85.3887 36.6627L85.4516 35.6647ZM96.7639 36.0912C97.7062 36.103 98.6498 36.1089 99.5948 36.1089V37.1089C98.6456 37.1089 97.6978 37.1029 96.7514 37.0911L96.7639 36.0912ZM99.5948 36.1089C100.54 36.1089 101.483 36.103 102.426 36.0912L102.438 37.0911C101.492 37.1029 100.544 37.1089 99.5948 37.1089V36.1089ZM108.085 35.9492C109.975 35.8779 111.86 35.783 113.738 35.6647L113.801 36.6627C111.914 36.7816 110.021 36.8769 108.123 36.9485L108.085 35.9492ZM119.381 35.2373C121.265 35.0706 123.143 34.8804 125.013 34.6668L125.127 35.6604C123.248 35.8749 121.362 36.066 119.47 36.2334L119.381 35.2373ZM130.629 33.9531C132.501 33.6909 134.366 33.4053 136.224 33.0966L136.388 34.0831C134.522 34.3932 132.648 34.6801 130.767 34.9435L130.629 33.9531ZM141.795 32.0975C143.651 31.7402 145.499 31.3597 147.339 30.9563L147.553 31.9331C145.704 32.3383 143.848 32.7205 141.984 33.0795L141.795 32.0975ZM152.852 29.6737C154.687 29.2221 156.513 28.7476 158.33 28.2507L158.594 29.2153C156.769 29.7145 154.934 30.1911 153.091 30.6447L152.852 29.6737ZM163.771 26.6883C165.579 26.1438 167.379 25.5768 169.169 24.9877L169.482 25.9376C167.684 26.5293 165.876 27.0989 164.059 27.6458L163.771 26.6883ZM174.523 23.1501C176.301 22.5143 178.07 21.8565 179.828 21.177L180.189 22.1098C178.423 22.7923 176.646 23.4531 174.86 24.0917L174.523 23.1501ZM185.082 19.0701C186.826 18.3452 188.559 17.5988 190.281 16.8311L190.688 17.7445C188.958 18.5156 187.217 19.2653 185.466 19.9935L185.082 19.0701ZM195.421 14.4618C196.273 14.0561 197.123 13.6451 197.969 13.2289L198.41 14.1263C197.56 14.5443 196.707 14.9571 195.851 15.3647L195.421 14.4618Z" fill="#2955D9"/>
<path d="M200.406 8.76401L200.138 13.0431C200.119 13.3474 200.397 13.5736 200.673 13.4782L205.344 11.8697C205.344 11.8697 202.2 8.79394 202.168 8.87779C202.137 8.96164 200.406 8.76401 200.406 8.76401Z" fill="#B5D1DB"/>
<path d="M212.434 5.29869C209.778 5.30924 201.168 5.45425 197.908 5.50976C197.477 5.51747 197.286 6.08594 197.618 6.37096L200.406 8.76561L200.138 13.0302C200.128 13.2021 200.209 13.3491 200.332 13.4294C200.431 13.4953 201.763 10.4773 201.763 10.4773C201.763 10.4773 204.122 14.4957 205.243 16.3949C205.519 16.8626 206.167 16.8642 206.452 16.3975C207.909 14.0109 211.552 8.04365 212.798 6.00281C212.985 5.69572 212.779 5.29574 212.434 5.29767L212.434 5.29869Z" fill="#2955D9"/>
<path d="M200.332 13.4303C200.431 13.4962 201.763 10.4781 201.763 10.4781L209.363 7.28483C209.415 7.26363 209.393 7.18246 209.339 7.19206L200.405 8.76507L200.138 13.0296C200.127 13.2016 200.208 13.3485 200.331 13.4289L200.332 13.4303Z" fill="#D6E2EA"/>
</svg>
