<svg width="223" height="32" viewBox="0 0 223 32" fill="none" xmlns="http://www.w3.org/2000/svg">
<path d="M0.786687 24.2533C0.536936 24.3711 0.429976 24.669 0.547786 24.9188C0.665596 25.1685 0.963562 25.2755 1.21331 25.1577L0.786687 24.2533ZM3.97284 23.8767C4.22402 23.7619 4.33463 23.4653 4.2199 23.2141C4.10516 22.9629 3.80853 22.8523 3.55736 22.9671L3.97284 23.8767ZM9.14512 20.4973C8.89119 20.6058 8.77332 20.8996 8.88184 21.1535C8.99036 21.4075 9.28419 21.5253 9.53811 21.4168L9.14512 20.4973ZM15.1623 19.0946C15.4188 18.9924 15.5439 18.7015 15.4416 18.445C15.3394 18.1885 15.0486 18.0634 14.792 18.1657L15.1623 19.0946ZM20.4948 15.9737C20.2358 16.0696 20.1036 16.3573 20.1995 16.6162C20.2954 16.8752 20.5831 17.0074 20.842 16.9115L20.4948 15.9737ZM26.574 14.8689C26.8352 14.7794 26.9745 14.4951 26.885 14.2339C26.7955 13.9726 26.5112 13.8334 26.2499 13.9229L26.574 14.8689ZM32.054 12.0144C31.7907 12.0974 31.6445 12.3782 31.7275 12.6416C31.8105 12.905 32.0913 13.0512 32.3547 12.9681L32.054 12.0144ZM38.1797 11.2106C38.4451 11.1341 38.5982 10.857 38.5216 10.5917C38.4451 10.3264 38.168 10.1733 37.9027 10.2498L38.1797 11.2106ZM43.7932 8.62977C43.5261 8.69971 43.3662 8.97296 43.4362 9.2401C43.5061 9.50724 43.7794 9.6671 44.0465 9.59716L43.7932 8.62977ZM49.9515 8.12864C50.2203 8.0653 50.3868 7.79606 50.3235 7.52728C50.2602 7.2585 49.9909 7.09196 49.7221 7.1553L49.9515 8.12864ZM55.6858 5.82716C55.4156 5.88386 55.2425 6.14892 55.2992 6.41918C55.3559 6.68943 55.6209 6.86255 55.8912 6.80584L55.6858 5.82716ZM61.8615 5.62954C62.133 5.57949 62.3126 5.31877 62.2626 5.0472C62.2125 4.77563 61.9518 4.59606 61.6802 4.6461L61.8615 5.62954ZM67.7011 3.61272C67.4284 3.65609 67.2424 3.91233 67.2858 4.18505C67.3292 4.45776 67.5854 4.64368 67.8581 4.60031L67.7011 3.61272ZM73.8786 3.71828C74.1523 3.6816 74.3444 3.42999 74.3078 3.1563C74.2711 2.8826 74.0195 2.69046 73.7458 2.72715L73.8786 3.71828ZM79.8108 1.98958C79.5363 2.01957 79.3381 2.26641 79.368 2.54092C79.398 2.81543 79.6449 3.01366 79.9194 2.98367L79.8108 1.98958ZM85.9765 2.39655C86.2517 2.37326 86.4559 2.13131 86.4326 1.85615C86.4093 1.581 86.1674 1.37682 85.8922 1.40011L85.9765 2.39655ZM91.9847 0.958722C91.709 0.975336 91.499 1.21226 91.5157 1.4879C91.5323 1.76354 91.7692 1.97352 92.0448 1.95691L91.9847 0.958722ZM98.1227 1.66428C98.3986 1.65433 98.6143 1.42255 98.6043 1.14659C98.5944 0.870622 98.3626 0.654976 98.0866 0.664925L98.1227 1.66428ZM104.195 0.518298C103.919 0.521607 103.697 0.748131 103.701 1.02425C103.704 1.30038 103.931 1.52154 104.207 1.51823L104.195 0.518298ZM110.293 1.51823C110.569 1.52154 110.796 1.30038 110.799 1.02425C110.803 0.748131 110.581 0.521607 110.305 0.518298L110.293 1.51823ZM116.413 0.664926C116.137 0.654976 115.906 0.870623 115.896 1.14659C115.886 1.42255 116.101 1.65433 116.377 1.66428L116.413 0.664926ZM122.455 1.95691C122.731 1.97353 122.968 1.76354 122.984 1.4879C123.001 1.21226 122.791 0.975337 122.515 0.958723L122.455 1.95691ZM128.608 1.40012C128.333 1.37682 128.091 1.581 128.067 1.85615C128.044 2.13131 128.248 2.37326 128.523 2.39655L128.608 1.40012ZM134.581 2.98367C134.855 3.01366 135.102 2.81543 135.132 2.54092C135.162 2.26641 134.964 2.01957 134.689 1.98958L134.581 2.98367ZM140.754 2.72715C140.48 2.69046 140.229 2.8826 140.192 3.1563C140.156 3.42999 140.348 3.6816 140.621 3.71828L140.754 2.72715ZM146.642 4.60031C146.915 4.64368 147.171 4.45776 147.214 4.18505C147.258 3.91233 147.072 3.65609 146.799 3.61272L146.642 4.60031ZM152.82 4.64611C152.548 4.59606 152.287 4.77564 152.237 5.0472C152.187 5.31877 152.367 5.5795 152.638 5.62954L152.82 4.64611ZM158.609 6.80585C158.879 6.86255 159.144 6.68944 159.201 6.41918C159.258 6.14892 159.084 5.88386 158.814 5.82716L158.609 6.80585ZM164.778 7.1553C164.509 7.09196 164.24 7.2585 164.176 7.52728C164.113 7.79606 164.28 8.0653 164.548 8.12864L164.778 7.1553ZM170.453 9.59716C170.721 9.6671 170.994 9.50724 171.064 9.2401C171.134 8.97296 170.974 8.69971 170.707 8.62977L170.453 9.59716ZM176.597 10.2498C176.332 10.1733 176.055 10.3264 175.978 10.5917C175.902 10.857 176.055 11.1341 176.32 11.2106L176.597 10.2498ZM182.145 12.9681C182.409 13.0512 182.689 12.905 182.772 12.6416C182.856 12.3782 182.709 12.0974 182.446 12.0144L182.145 12.9681ZM188.25 13.9229C187.989 13.8334 187.704 13.9726 187.615 14.2339C187.525 14.4951 187.665 14.7794 187.926 14.8689L188.25 13.9229ZM193.658 16.9115C193.917 17.0074 194.205 16.8752 194.3 16.6162C194.396 16.3573 194.264 16.0696 194.005 15.9737L193.658 16.9115ZM199.708 18.1657C199.451 18.0634 199.161 18.1885 199.058 18.445C198.956 18.7015 199.081 18.9924 199.338 19.0946L199.708 18.1657ZM204.962 21.4168C205.216 21.5253 205.51 21.4075 205.618 21.1536C205.727 20.8996 205.609 20.6058 205.355 20.4973L204.962 21.4168ZM210.943 22.9671C210.691 22.8523 210.395 22.9629 210.28 23.2141C210.165 23.4653 210.276 23.7619 210.527 23.8767L210.943 22.9671ZM1.21331 25.1577C2.1301 24.7252 3.04996 24.2982 3.97284 23.8767L3.55736 22.9671C2.63075 23.3903 1.70718 23.8191 0.786687 24.2533L1.21331 25.1577ZM9.53811 21.4168C11.4013 20.6206 13.2761 19.8464 15.1623 19.0946L14.792 18.1657C12.8982 18.9205 11.0158 19.6978 9.14512 20.4973L9.53811 21.4168ZM20.842 16.9115C22.7419 16.208 24.6526 15.527 26.574 14.8689L26.2499 13.9229C24.3208 14.5836 22.4023 15.2674 20.4948 15.9737L20.842 16.9115ZM32.3547 12.9681C34.2863 12.3593 36.2281 11.7733 38.1797 11.2106L37.9027 10.2498C35.9431 10.8147 33.9935 11.4031 32.054 12.0144L32.3547 12.9681ZM44.0465 9.59716C46.0055 9.08427 47.974 8.59466 49.9515 8.12864L49.7221 7.1553C47.7366 7.6232 45.7602 8.1148 43.7932 8.62977L44.0465 9.59716ZM55.8912 6.80584C57.8727 6.39007 59.8629 5.99787 61.8615 5.62954L61.6802 4.6461C59.6736 5.01591 57.6754 5.4097 55.6858 5.82716L55.8912 6.80584ZM67.8581 4.60031C69.8571 4.2824 71.864 3.98829 73.8786 3.71828L73.7458 2.72715C71.7231 2.99824 69.7081 3.29353 67.7011 3.61272L67.8581 4.60031ZM79.9194 2.98367C81.9313 2.76388 83.9505 2.56808 85.9765 2.39655L85.8922 1.40011C83.858 1.57233 81.8308 1.76892 79.8108 1.98958L79.9194 2.98367ZM92.0448 1.95691C94.0644 1.83519 96.0904 1.73755 98.1227 1.66428L98.0866 0.664925C96.0463 0.738486 94.0122 0.836513 91.9847 0.958722L92.0448 1.95691ZM104.207 1.51823C105.22 1.50609 106.234 1.5 107.25 1.5V0.5C106.23 0.5 105.212 0.506111 104.195 0.518298L104.207 1.51823ZM107.25 1.5C108.266 1.5 109.28 1.50609 110.293 1.51823L110.305 0.518298C109.288 0.506111 108.27 0.5 107.25 0.5V1.5ZM116.377 1.66428C118.41 1.73755 120.436 1.83519 122.455 1.95691L122.515 0.958723C120.488 0.836514 118.454 0.738487 116.413 0.664926L116.377 1.66428ZM128.523 2.39655C130.549 2.56808 132.569 2.76388 134.581 2.98367L134.689 1.98958C132.669 1.76892 130.642 1.57233 128.608 1.40012L128.523 2.39655ZM140.621 3.71828C142.636 3.98829 144.643 4.2824 146.642 4.60031L146.799 3.61272C144.792 3.29353 142.777 2.99824 140.754 2.72715L140.621 3.71828ZM152.638 5.62954C154.637 5.99787 156.627 6.39007 158.609 6.80585L158.814 5.82716C156.825 5.4097 154.826 5.01592 152.82 4.64611L152.638 5.62954ZM164.548 8.12864C166.526 8.59466 168.494 9.08427 170.453 9.59716L170.707 8.62977C168.74 8.1148 166.763 7.6232 164.778 7.1553L164.548 8.12864ZM176.32 11.2106C178.272 11.7733 180.214 12.3593 182.145 12.9681L182.446 12.0144C180.506 11.4031 178.557 10.8148 176.597 10.2498L176.32 11.2106ZM187.926 14.8689C189.847 15.527 191.758 16.208 193.658 16.9115L194.005 15.9737C192.098 15.2674 190.179 14.5836 188.25 13.9229L187.926 14.8689ZM199.338 19.0946C201.224 19.8464 203.099 20.6206 204.962 21.4168L205.355 20.4973C203.484 19.6978 201.602 18.9205 199.708 18.1657L199.338 19.0946ZM210.527 23.8767C211.45 24.2982 212.37 24.7252 213.287 25.1577L213.713 24.2533C212.793 23.8191 211.869 23.3903 210.943 22.9671L210.527 23.8767ZM0.786687 24.2533C0.536936 24.3711 0.429976 24.669 0.547786 24.9188C0.665596 25.1685 0.963562 25.2755 1.21331 25.1577L0.786687 24.2533ZM3.97284 23.8767C4.22402 23.7619 4.33463 23.4653 4.2199 23.2141C4.10516 22.9629 3.80853 22.8523 3.55736 22.9671L3.97284 23.8767ZM9.14512 20.4973C8.89119 20.6058 8.77332 20.8996 8.88184 21.1535C8.99036 21.4075 9.28419 21.5253 9.53811 21.4168L9.14512 20.4973ZM15.1623 19.0946C15.4188 18.9924 15.5439 18.7015 15.4416 18.445C15.3394 18.1885 15.0486 18.0634 14.792 18.1657L15.1623 19.0946ZM20.4948 15.9737C20.2358 16.0696 20.1036 16.3573 20.1995 16.6162C20.2954 16.8752 20.5831 17.0074 20.842 16.9115L20.4948 15.9737ZM26.574 14.8689C26.8352 14.7794 26.9745 14.4951 26.885 14.2339C26.7955 13.9726 26.5112 13.8334 26.2499 13.9229L26.574 14.8689ZM32.054 12.0144C31.7907 12.0974 31.6445 12.3782 31.7275 12.6416C31.8105 12.905 32.0913 13.0512 32.3547 12.9681L32.054 12.0144ZM38.1797 11.2106C38.4451 11.1341 38.5982 10.857 38.5216 10.5917C38.4451 10.3264 38.168 10.1733 37.9027 10.2498L38.1797 11.2106ZM43.7932 8.62977C43.5261 8.69971 43.3662 8.97296 43.4362 9.2401C43.5061 9.50724 43.7794 9.6671 44.0465 9.59716L43.7932 8.62977ZM49.9515 8.12864C50.2203 8.0653 50.3868 7.79606 50.3235 7.52728C50.2602 7.2585 49.9909 7.09196 49.7221 7.1553L49.9515 8.12864ZM55.6858 5.82716C55.4156 5.88386 55.2425 6.14892 55.2992 6.41918C55.3559 6.68943 55.6209 6.86255 55.8912 6.80584L55.6858 5.82716ZM61.8615 5.62954C62.133 5.57949 62.3126 5.31877 62.2626 5.0472C62.2125 4.77563 61.9518 4.59606 61.6802 4.6461L61.8615 5.62954ZM67.7011 3.61272C67.4284 3.65609 67.2424 3.91233 67.2858 4.18505C67.3292 4.45776 67.5854 4.64368 67.8581 4.60031L67.7011 3.61272ZM73.8786 3.71828C74.1523 3.6816 74.3444 3.42999 74.3078 3.1563C74.2711 2.8826 74.0195 2.69046 73.7458 2.72715L73.8786 3.71828ZM79.8108 1.98958C79.5363 2.01957 79.3381 2.26641 79.368 2.54092C79.398 2.81543 79.6449 3.01366 79.9194 2.98367L79.8108 1.98958ZM85.9765 2.39655C86.2517 2.37326 86.4559 2.13131 86.4326 1.85615C86.4093 1.581 86.1674 1.37682 85.8922 1.40011L85.9765 2.39655ZM91.9847 0.958722C91.709 0.975336 91.499 1.21226 91.5157 1.4879C91.5323 1.76354 91.7692 1.97352 92.0448 1.95691L91.9847 0.958722ZM98.1227 1.66428C98.3986 1.65433 98.6143 1.42255 98.6043 1.14659C98.5944 0.870622 98.3626 0.654976 98.0866 0.664925L98.1227 1.66428ZM104.195 0.518298C103.919 0.521607 103.697 0.748131 103.701 1.02425C103.704 1.30038 103.931 1.52154 104.207 1.51823L104.195 0.518298ZM110.293 1.51823C110.569 1.52154 110.796 1.30038 110.799 1.02425C110.803 0.748131 110.581 0.521607 110.305 0.518298L110.293 1.51823ZM116.413 0.664926C116.137 0.654976 115.906 0.870623 115.896 1.14659C115.886 1.42255 116.101 1.65433 116.377 1.66428L116.413 0.664926ZM122.455 1.95691C122.731 1.97353 122.968 1.76354 122.984 1.4879C123.001 1.21226 122.791 0.975337 122.515 0.958723L122.455 1.95691ZM128.608 1.40012C128.333 1.37682 128.091 1.581 128.067 1.85615C128.044 2.13131 128.248 2.37326 128.523 2.39655L128.608 1.40012ZM134.581 2.98367C134.855 3.01366 135.102 2.81543 135.132 2.54092C135.162 2.26641 134.964 2.01957 134.689 1.98958L134.581 2.98367ZM140.754 2.72715C140.48 2.69046 140.229 2.8826 140.192 3.1563C140.156 3.42999 140.348 3.6816 140.621 3.71828L140.754 2.72715ZM146.642 4.60031C146.915 4.64368 147.171 4.45776 147.214 4.18505C147.258 3.91233 147.072 3.65609 146.799 3.61272L146.642 4.60031ZM152.82 4.64611C152.548 4.59606 152.287 4.77564 152.237 5.0472C152.187 5.31877 152.367 5.5795 152.638 5.62954L152.82 4.64611ZM158.609 6.80585C158.879 6.86255 159.144 6.68944 159.201 6.41918C159.258 6.14892 159.084 5.88386 158.814 5.82716L158.609 6.80585ZM164.778 7.1553C164.509 7.09196 164.24 7.2585 164.176 7.52728C164.113 7.79606 164.28 8.0653 164.548 8.12864L164.778 7.1553ZM170.453 9.59716C170.721 9.6671 170.994 9.50724 171.064 9.2401C171.134 8.97296 170.974 8.69971 170.707 8.62977L170.453 9.59716ZM176.597 10.2498C176.332 10.1733 176.055 10.3264 175.978 10.5917C175.902 10.857 176.055 11.1341 176.32 11.2106L176.597 10.2498ZM182.145 12.9681C182.409 13.0512 182.689 12.905 182.772 12.6416C182.856 12.3782 182.709 12.0974 182.446 12.0144L182.145 12.9681ZM188.25 13.9229C187.989 13.8334 187.704 13.9726 187.615 14.2339C187.525 14.4951 187.665 14.7794 187.926 14.8689L188.25 13.9229ZM193.658 16.9115C193.917 17.0074 194.205 16.8752 194.3 16.6162C194.396 16.3573 194.264 16.0696 194.005 15.9737L193.658 16.9115ZM199.708 18.1657C199.451 18.0634 199.161 18.1885 199.058 18.445C198.956 18.7015 199.081 18.9924 199.338 19.0946L199.708 18.1657ZM204.962 21.4168C205.216 21.5253 205.51 21.4075 205.618 21.1536C205.727 20.8996 205.609 20.6058 205.355 20.4973L204.962 21.4168ZM210.943 22.9671C210.691 22.8523 210.395 22.9629 210.28 23.2141C210.165 23.4653 210.276 23.7619 210.527 23.8767L210.943 22.9671ZM1.21331 25.1577C2.1301 24.7252 3.04996 24.2982 3.97284 23.8767L3.55736 22.9671C2.63075 23.3903 1.70718 23.8191 0.786687 24.2533L1.21331 25.1577ZM9.53811 21.4168C11.4013 20.6206 13.2761 19.8464 15.1623 19.0946L14.792 18.1657C12.8982 18.9205 11.0158 19.6978 9.14512 20.4973L9.53811 21.4168ZM20.842 16.9115C22.7419 16.208 24.6526 15.527 26.574 14.8689L26.2499 13.9229C24.3208 14.5836 22.4023 15.2674 20.4948 15.9737L20.842 16.9115ZM32.3547 12.9681C34.2863 12.3593 36.2281 11.7733 38.1797 11.2106L37.9027 10.2498C35.9431 10.8147 33.9935 11.4031 32.054 12.0144L32.3547 12.9681ZM44.0465 9.59716C46.0055 9.08427 47.974 8.59466 49.9515 8.12864L49.7221 7.1553C47.7366 7.6232 45.7602 8.1148 43.7932 8.62977L44.0465 9.59716ZM55.8912 6.80584C57.8727 6.39007 59.8629 5.99787 61.8615 5.62954L61.6802 4.6461C59.6736 5.01591 57.6754 5.4097 55.6858 5.82716L55.8912 6.80584ZM67.8581 4.60031C69.8571 4.2824 71.864 3.98829 73.8786 3.71828L73.7458 2.72715C71.7231 2.99824 69.7081 3.29353 67.7011 3.61272L67.8581 4.60031ZM79.9194 2.98367C81.9313 2.76388 83.9505 2.56808 85.9765 2.39655L85.8922 1.40011C83.858 1.57233 81.8308 1.76892 79.8108 1.98958L79.9194 2.98367ZM92.0448 1.95691C94.0644 1.83519 96.0904 1.73755 98.1227 1.66428L98.0866 0.664925C96.0463 0.738486 94.0122 0.836513 91.9847 0.958722L92.0448 1.95691ZM104.207 1.51823C105.22 1.50609 106.234 1.5 107.25 1.5V0.5C106.23 0.5 105.212 0.506111 104.195 0.518298L104.207 1.51823ZM107.25 1.5C108.266 1.5 109.28 1.50609 110.293 1.51823L110.305 0.518298C109.288 0.506111 108.27 0.5 107.25 0.5V1.5ZM116.377 1.66428C118.41 1.73755 120.436 1.83519 122.455 1.95691L122.515 0.958723C120.488 0.836514 118.454 0.738487 116.413 0.664926L116.377 1.66428ZM128.523 2.39655C130.549 2.56808 132.569 2.76388 134.581 2.98367L134.689 1.98958C132.669 1.76892 130.642 1.57233 128.608 1.40012L128.523 2.39655ZM140.621 3.71828C142.636 3.98829 144.643 4.2824 146.642 4.60031L146.799 3.61272C144.792 3.29353 142.777 2.99824 140.754 2.72715L140.621 3.71828ZM152.638 5.62954C154.637 5.99787 156.627 6.39007 158.609 6.80585L158.814 5.82716C156.825 5.4097 154.826 5.01592 152.82 4.64611L152.638 5.62954ZM164.548 8.12864C166.526 8.59466 168.494 9.08427 170.453 9.59716L170.707 8.62977C168.74 8.1148 166.763 7.6232 164.778 7.1553L164.548 8.12864ZM176.32 11.2106C178.272 11.7733 180.214 12.3593 182.145 12.9681L182.446 12.0144C180.506 11.4031 178.557 10.8148 176.597 10.2498L176.32 11.2106ZM187.926 14.8689C189.847 15.527 191.758 16.208 193.658 16.9115L194.005 15.9737C192.098 15.2674 190.179 14.5836 188.25 13.9229L187.926 14.8689ZM199.338 19.0946C201.224 19.8464 203.099 20.6206 204.962 21.4168L205.355 20.4973C203.484 19.6978 201.602 18.9205 199.708 18.1657L199.338 19.0946ZM210.527 23.8767C211.45 24.2982 212.37 24.7252 213.287 25.1577L213.713 24.2533C212.793 23.8191 211.869 23.3903 210.943 22.9671L210.527 23.8767Z" fill="#2955D9"/>
<path d="M212.747 19.5153L208.775 21.4836C208.492 21.6233 208.44 21.9999 208.675 22.2078L212.637 25.7277C212.637 25.7277 213.689 21.203 213.597 21.2168C213.505 21.2305 212.747 19.5153 212.747 19.5153Z" fill="#B5D1DB"/>
<path d="M222.35 28.9302C220.905 26.4604 216.122 18.5086 214.311 15.4988C214.071 15.101 213.459 15.2182 213.384 15.6755L212.748 19.5152L208.789 21.4771C208.63 21.5564 208.542 21.708 208.537 21.8642C208.531 21.991 211.951 21.6676 211.951 21.6676C211.951 21.6676 209.631 25.95 208.538 27.9797C208.269 28.4794 208.618 29.0845 209.189 29.1083C212.111 29.2289 219.418 29.5316 221.917 29.6347C222.292 29.6502 222.539 29.2504 222.351 28.93L222.35 28.9302Z" fill="#2955D9"/>
<path d="M208.536 21.8646C208.531 21.9914 211.95 21.668 211.95 21.668L218.914 27.0979C218.961 27.1351 219.022 27.0727 218.984 27.0273L212.748 19.5143L208.789 21.4762C208.63 21.5556 208.542 21.7071 208.537 21.8634L208.536 21.8646Z" fill="#D6E2EA"/>
</svg>
