<svg width="48" height="48" viewBox="0 0 48 48" fill="none" xmlns="http://www.w3.org/2000/svg">
<path fill-rule="evenodd" clip-rule="evenodd" d="M21.8872 2.5H26.1128C29.7884 2.49997 32.6996 2.49994 34.978 2.80627C37.3229 3.12153 39.2208 3.78576 40.7175 5.28249C41.3033 5.86827 41.3033 6.81802 40.7175 7.40381C40.1317 7.98959 39.182 7.98959 38.5962 7.40381C37.7498 6.55739 36.5905 6.05005 34.5783 5.77952C32.523 5.50319 29.8136 5.5 26 5.5H22C18.1864 5.5 15.477 5.50319 13.4217 5.77952C11.4095 6.05005 10.2502 6.55739 9.40381 7.40381C8.55739 8.25023 8.05005 9.40952 7.77952 11.4217C7.50319 13.477 7.5 16.1864 7.5 20V28C7.5 31.8136 7.50319 34.523 7.77952 36.5783C8.05005 38.5905 8.55739 39.7498 9.40381 40.5962C10.2502 41.4426 11.4095 41.95 13.4217 42.2205C15.477 42.4968 18.1864 42.5 22 42.5H26C29.8136 42.5 32.523 42.4968 34.5783 42.2205C36.5905 41.95 37.7498 41.4426 38.5962 40.5962C39.9881 39.2043 40.4095 37.0416 40.4828 31.9783C40.4948 31.15 41.176 30.4882 42.0043 30.5002C42.8327 30.5121 43.4944 31.1934 43.4825 32.0217C43.4122 36.8766 43.098 40.3371 40.7175 42.7175C39.2208 44.2142 37.3229 44.8785 34.978 45.1937C32.6996 45.5001 29.7883 45.5 26.1128 45.5H21.8872C18.2117 45.5 15.3004 45.5001 13.022 45.1937C10.6771 44.8785 8.77921 44.2142 7.28249 42.7175C5.78576 41.2208 5.12153 39.3229 4.80627 36.978C4.49994 34.6996 4.49997 31.7884 4.5 28.1128V19.8872C4.49997 16.2116 4.49994 13.3004 4.80627 11.022C5.12153 8.67711 5.78576 6.77921 7.28249 5.28249C8.77921 3.78576 10.6771 3.12153 13.022 2.80627C15.3004 2.49994 18.2116 2.49997 21.8872 2.5ZM36.2263 14.0911C38.3478 11.9696 41.7874 11.9696 43.9089 14.0911C46.0304 16.2126 46.0304 19.6522 43.9089 21.7737L34.3983 31.2844C33.8808 31.8019 33.5308 32.1521 33.1387 32.4579C32.6774 32.8176 32.1784 33.1261 31.6503 33.3777C31.2014 33.5917 30.7317 33.7482 30.0374 33.9795L25.8702 35.3686C24.9501 35.6753 23.9357 35.4358 23.25 34.75C22.5642 34.0642 22.3247 33.0499 22.6314 32.1298L23.9925 28.0465C24.002 28.0182 24.0113 27.9902 24.0205 27.9626C24.2518 27.2683 24.4083 26.7986 24.6223 26.3497C24.8739 25.8216 25.1824 25.3226 25.5421 24.8613C25.8479 24.4692 26.1981 24.1192 26.7156 23.6018C26.7362 23.5812 26.757 23.5604 26.7782 23.5392L36.2263 14.0911ZM41.7876 16.2124C40.8376 15.2625 39.2975 15.2625 38.3476 16.2124L37.984 16.576C38.0038 16.643 38.0264 16.7142 38.0524 16.789C38.2405 17.3313 38.5975 18.0485 39.2745 18.7255C39.9515 19.4025 40.6687 19.7595 41.211 19.9476C41.2858 19.9736 41.357 19.9962 41.424 20.016L41.7876 19.6524C42.7375 18.7025 42.7375 17.1624 41.7876 16.2124ZM39.1329 22.3071C38.4971 21.9732 37.8106 21.5043 37.1532 20.8468C36.4957 20.1894 36.0268 19.5029 35.6929 18.8671L28.8995 25.6606C28.2973 26.2627 28.0861 26.4777 27.9077 26.7064C27.6819 26.9958 27.4884 27.309 27.3304 27.6404C27.2056 27.9022 27.1079 28.1873 26.8386 28.9952L26.038 31.3969L26.6031 31.962L29.0048 31.1614C29.8127 30.8921 30.0978 30.7944 30.3596 30.6696C30.691 30.5117 31.0042 30.3181 31.2936 30.0923C31.5224 29.9139 31.7373 29.7027 32.3394 29.1005L39.1329 22.3071ZM14.5 18C14.5 17.1716 15.1716 16.5 16 16.5H29C29.8284 16.5 30.5 17.1716 30.5 18C30.5 18.8284 29.8284 19.5 29 19.5H16C15.1716 19.5 14.5 18.8284 14.5 18ZM14.5 26C14.5 25.1716 15.1716 24.5 16 24.5H21C21.8284 24.5 22.5 25.1716 22.5 26C22.5 26.8284 21.8284 27.5 21 27.5H16C15.1716 27.5 14.5 26.8284 14.5 26ZM14.5 34C14.5 33.1716 15.1716 32.5 16 32.5H19C19.8284 32.5 20.5 33.1716 20.5 34C20.5 34.8284 19.8284 35.5 19 35.5H16C15.1716 35.5 14.5 34.8284 14.5 34Z" fill="#2955D9"/>
</svg>
