<svg width="48" height="48" viewBox="0 0 48 48" fill="none" xmlns="http://www.w3.org/2000/svg">
<path d="M34 28C35.1046 28 36 27.1046 36 26C36 24.8954 35.1046 24 34 24C32.8954 24 32 24.8954 32 26C32 27.1046 32.8954 28 34 28Z" fill="#2955D9"/>
<path d="M34 36C35.1046 36 36 35.1046 36 34C36 32.8954 35.1046 32 34 32C32.8954 32 32 32.8954 32 34C32 35.1046 32.8954 36 34 36Z" fill="#2955D9"/>
<path d="M26 26C26 27.1046 25.1046 28 24 28C22.8954 28 22 27.1046 22 26C22 24.8954 22.8954 24 24 24C25.1046 24 26 24.8954 26 26Z" fill="#2955D9"/>
<path d="M26 34C26 35.1046 25.1046 36 24 36C22.8954 36 22 35.1046 22 34C22 32.8954 22.8954 32 24 32C25.1046 32 26 32.8954 26 34Z" fill="#2955D9"/>
<path d="M14 28C15.1046 28 16 27.1046 16 26C16 24.8954 15.1046 24 14 24C12.8954 24 12 24.8954 12 26C12 27.1046 12.8954 28 14 28Z" fill="#2955D9"/>
<path d="M14 36C15.1046 36 16 35.1046 16 34C16 32.8954 15.1046 32 14 32C12.8954 32 12 32.8954 12 34C12 35.1046 12.8954 36 14 36Z" fill="#2955D9"/>
<path fill-rule="evenodd" clip-rule="evenodd" d="M14 3.5C14.8284 3.5 15.5 4.17157 15.5 5V6.52544C16.824 6.49997 18.2827 6.49999 19.8869 6.5H28.1128C29.7171 6.49999 31.176 6.49997 32.5 6.52544V5C32.5 4.17157 33.1716 3.5 34 3.5C34.8284 3.5 35.5 4.17157 35.5 5V6.65417C36.0199 6.69381 36.5122 6.74364 36.978 6.80627C39.3229 7.12152 41.2208 7.78576 42.7175 9.28249C44.2142 10.7792 44.8785 12.6771 45.1937 15.022C45.5 17.3004 45.5 20.2116 45.5 23.8871V28.1128C45.5 31.7883 45.5 34.6996 45.1937 36.978C44.8785 39.3229 44.2142 41.2208 42.7175 42.7175C41.2208 44.2142 39.3229 44.8785 36.978 45.1937C34.6996 45.5001 31.7884 45.5 28.1129 45.5H19.8872C16.2117 45.5 13.3004 45.5001 11.022 45.1937C8.67711 44.8785 6.77921 44.2142 5.28249 42.7175C3.78576 41.2208 3.12153 39.3229 2.80627 36.978C2.49994 34.6996 2.49997 31.7884 2.5 28.1128V23.8872C2.49997 20.2116 2.49994 17.3004 2.80627 15.022C3.12153 12.6771 3.78576 10.7792 5.28249 9.28249C6.77921 7.78576 8.67711 7.12152 11.022 6.80627C11.4878 6.74364 11.9801 6.69381 12.5 6.65417V5C12.5 4.17157 13.1716 3.5 14 3.5ZM11.4217 9.77952C9.40952 10.05 8.25023 10.5574 7.40381 11.4038C6.55739 12.2502 6.05005 13.4095 5.77952 15.4217C5.7337 15.7625 5.6954 16.1212 5.66337 16.5H42.3366C42.3046 16.1212 42.2663 15.7625 42.2205 15.4217C41.9499 13.4095 41.4426 12.2502 40.5962 11.4038C39.7498 10.5574 38.5905 10.05 36.5783 9.77952C34.523 9.50319 31.8136 9.5 28 9.5H20C16.1864 9.5 13.477 9.50319 11.4217 9.77952ZM5.5 24C5.5 22.292 5.50064 20.8055 5.52617 19.5H42.4738C42.4994 20.8055 42.5 22.292 42.5 24V28C42.5 31.8136 42.4968 34.523 42.2205 36.5783C41.9499 38.5905 41.4426 39.7498 40.5962 40.5962C39.7498 41.4426 38.5905 41.95 36.5783 42.2205C34.523 42.4968 31.8136 42.5 28 42.5H20C16.1864 42.5 13.477 42.4968 11.4217 42.2205C9.40952 41.95 8.25023 41.4426 7.40381 40.5962C6.55739 39.7498 6.05005 38.5905 5.77952 36.5783C5.50319 34.523 5.5 31.8136 5.5 28V24Z" fill="#2955D9"/>
</svg>
