<svg width="48" height="48" viewBox="0 0 48 48" fill="none" xmlns="http://www.w3.org/2000/svg">
<path fill-rule="evenodd" clip-rule="evenodd" d="M28.1985 4.78218C31.2414 1.73927 36.1749 1.73927 39.2179 4.78218C42.2608 7.8251 42.2608 12.7586 39.2179 15.8015L24.0298 30.9896C23.1738 31.8457 22.6511 32.3685 22.0684 32.8229C21.382 33.3584 20.6392 33.8174 19.8533 34.1919C19.1863 34.5098 18.4849 34.7436 17.3364 35.1264L11.9911 36.9081L10.7077 37.3359C9.55903 37.7188 8.29258 37.4198 7.43639 36.5636C6.5802 35.7075 6.28123 34.441 6.66413 33.2923L8.87367 26.6637C9.25644 25.5152 9.4902 24.8137 9.8081 24.1467C10.1826 23.3608 10.6417 22.6181 11.1771 21.9316C11.6316 21.349 12.1544 20.8262 13.0105 19.9702L28.1985 4.78218ZM11.9218 33.7689L10.2311 32.0782L11.688 27.7077C12.1121 26.4352 12.2873 25.9178 12.5163 25.4374C12.7971 24.8482 13.1412 24.2913 13.5426 23.7767C13.8699 23.357 14.2544 22.969 15.2028 22.0205L26.9848 10.2385C27.4711 11.4585 28.2939 12.931 29.6815 14.3185C31.0691 15.7061 32.5415 16.5289 33.7615 17.0153L21.9795 28.7972C21.0311 29.7457 20.643 30.1301 20.2234 30.4574C19.7087 30.8588 19.1519 31.203 18.5627 31.4838C18.0823 31.7127 17.5649 31.8879 16.2924 32.3121L11.9218 33.7689ZM36.152 14.6248C35.9043 14.5704 35.5946 14.4886 35.2426 14.3665C34.2745 14.0306 33.0012 13.3956 31.8028 12.1972C30.6045 10.9989 29.9694 9.72551 29.6335 8.75747C29.5114 8.4054 29.4296 8.09574 29.3752 7.84809L30.3198 6.90351C32.1912 5.03217 35.2252 5.03217 37.0965 6.90351C38.9679 8.77485 38.9679 11.8089 37.0965 13.6802L36.152 14.6248ZM6.50004 44C6.50004 43.1716 7.17161 42.5 8.00004 42.5H40V45.5H8.00004C7.17161 45.5 6.50004 44.8284 6.50004 44Z" fill="#2955D9"/>
</svg>
