<svg width="25" height="24" viewBox="0 0 25 24" fill="none" xmlns="http://www.w3.org/2000/svg">
<path d="M15.5 2L16.0387 4.39157C16.4957 6.42015 18.0798 8.00431 20.1084 8.46127L22.5 9L20.1084 9.53873C18.0798 9.99569 16.4957 11.5798 16.0387 13.6084L15.5 16L14.9613 13.6084C14.5043 11.5798 12.9202 9.99569 10.8916 9.53873L8.5 9L10.8916 8.46127C12.9201 8.00431 14.5043 6.42015 14.9613 4.39158L15.5 2Z" stroke="#808080" stroke-width="1.5" stroke-linejoin="round"/>
<path d="M7.5 12L7.88481 13.7083C8.21121 15.1572 9.34275 16.2888 10.7917 16.6152L12.5 17L10.7917 17.3848C9.34275 17.7112 8.21121 18.8427 7.88481 20.2917L7.5 22L7.11519 20.2917C6.78879 18.8427 5.65725 17.7112 4.20827 17.3848L2.5 17L4.20827 16.6152C5.65725 16.2888 6.78879 15.1573 7.11519 13.7083L7.5 12Z" stroke="#808080" stroke-width="1.5" stroke-linejoin="round"/>
</svg>
