<svg width="20" height="20" viewBox="0 0 20 20" fill="none" xmlns="http://www.w3.org/2000/svg">
<path d="M7.62747 4.50731C8.68302 2.61376 9.21079 1.66699 9.99984 1.66699C10.7889 1.66699 11.3167 2.61376 12.3722 4.5073L12.6453 4.99719C12.9452 5.53527 13.0952 5.80431 13.3291 5.98183C13.5629 6.15935 13.8541 6.22524 14.4366 6.35703L14.9669 6.47702C17.0166 6.94079 18.0415 7.17267 18.2853 7.95677C18.5292 8.74086 17.8305 9.55788 16.4331 11.1919L16.0716 11.6147C15.6745 12.079 15.4759 12.3112 15.3866 12.5984C15.2973 12.8857 15.3273 13.1954 15.3874 13.815L15.442 14.379C15.6533 16.5592 15.7589 17.6492 15.1205 18.1338C14.4822 18.6184 13.5226 18.1766 11.6034 17.293L11.1069 17.0644C10.5616 16.8133 10.2889 16.6877 9.99984 16.6877C9.71079 16.6877 9.43811 16.8133 8.89274 17.0644L8.39623 17.293C6.47707 18.1766 5.51748 18.6184 4.87913 18.1338C4.24077 17.6492 4.3464 16.5592 4.55767 14.379L4.61232 13.815C4.67236 13.1954 4.70238 12.8857 4.61306 12.5984C4.52374 12.3112 4.32519 12.079 3.9281 11.6147L3.56659 11.1919C2.16921 9.55789 1.47052 8.74086 1.71435 7.95677C1.95819 7.17267 2.98305 6.94079 5.03278 6.47702L5.56308 6.35703C6.14555 6.22524 6.43678 6.15935 6.67062 5.98183C6.90447 5.80431 7.05444 5.53527 7.35439 4.99719L7.62747 4.50731Z" fill="#EFC004"/>
</svg>
